<svg width="256" height="256" viewBox="0 0 256 256" fill="none" xmlns="http://www.w3.org/2000/svg">
<path d="M205.291 78.4262C190.872 74.9425 175.46 77.182 162.533 85.3935C158.804 87.633 155.324 90.3702 152.341 93.605C148.861 97.0887 145.878 101.07 143.392 105.051C140.657 96.3422 136.431 87.8818 130.713 80.4169C128.725 77.6797 126.487 75.1914 124.002 72.703C103.617 52.2987 75.5263 45.3314 49.6728 51.5522C49.6728 51.5522 48.9271 53.5429 48.9271 54.0406V54.2894C47.1869 60.7591 46.4412 67.7264 46.4412 74.9425C46.4412 120.977 83.7298 158.302 129.719 158.302C155.821 158.302 178.94 146.358 194.353 127.446C205.539 113.263 209.268 95.098 205.291 78.4262Z" fill="#48AD9C"/>
<path fill-rule="evenodd" clip-rule="evenodd" d="M53.5688 192.376V160.57H39.3138V206.645H216.686V160.57H202.431V192.376H53.5688Z" fill="#1F2937"/>
</svg>
