<svg width="64" height="64" viewBox="0 0 64 64" fill="none" xmlns="http://www.w3.org/2000/svg">
<path d="M16.8157 38.5423H11.8893C10.5827 38.5423 9.3296 38.0233 8.40571 37.0994C7.48181 36.1755 6.96278 34.9224 6.96278 33.6159V23.7629C6.96278 21.0533 9.17969 18.8364 11.8893 18.8364H16.8157V13.9099H51.3011V38.5423C51.3011 41.1555 50.263 43.6617 48.4152 45.5094C46.5675 47.3572 44.0613 48.3953 41.4481 48.3953H26.6687C24.0555 48.3953 21.5494 47.3572 19.7016 45.5094C17.8538 43.6617 16.8157 41.1555 16.8157 38.5423ZM16.8157 33.6159V23.7629H11.8893V33.6159H16.8157Z" fill="#48AD9C"/>
<path d="M9.05563 52.834V55.702L20.5278 61.4381H49.2083L60.6805 55.702V52.834H9.05563Z" fill="#1F2937"/>
</svg>
