<svg width="282" height="85" viewBox="0 0 282 85" fill="none" xmlns="http://www.w3.org/2000/svg">
<path d="M224.9 60.5654V61.9654H229V73.1654H230.7V62.0654H234.7V60.5654H224.9ZM216.3 68.6654L212 60.8654C211.9 60.7654 211.8 60.6654 211.8 60.6654C211.7 60.6654 211.6 60.6654 211.5 60.6654H210.3V73.2654H211.8V63.9654C211.8 63.8654 211.8 63.6654 211.8 63.5654C211.8 63.4654 211.8 63.2654 211.8 63.1654L216.2 71.0654C216.3 71.3654 216.5 71.4654 216.8 71.4654H217C217.3 71.4654 217.5 71.3654 217.6 71.0654L221.9 63.1654C221.9 63.2654 221.9 63.4654 221.9 63.5654C221.9 63.6654 221.9 63.8654 221.9 63.9654V73.2654H223.4V60.5654H222.2C222 60.5654 221.9 60.5654 221.9 60.5654C221.8 60.5654 221.7 60.6654 221.7 60.7654L217.5 68.5654C217.4 68.7654 217.3 68.8654 217.3 69.0654C217.2 69.1654 217.2 69.3654 217.1 69.5654C217 69.3654 217 69.2654 216.9 69.0654C216.5 68.9654 216.4 68.7654 216.3 68.6654ZM202.4 63.4654C202.5 63.2654 202.5 63.1654 202.6 62.9654C202.7 62.7654 202.7 62.5654 202.8 62.2654C202.9 62.7654 203 63.1654 203.2 63.4654L205.2 68.5654H200.5L202.4 63.4654ZM203.6 60.5654H201.9L196.9 73.1654H198.2C198.3 73.1654 198.5 73.1654 198.6 73.0654C198.7 72.9654 198.8 72.8654 198.8 72.7654L200 69.7654H205.6L206.8 72.7654C206.8 72.8654 206.9 72.9654 207 73.0654C207.1 73.1654 207.2 73.1654 207.4 73.1654H208.7L203.6 60.5654ZM186 60.5654H185.1V73.1654H186.6V64.1654C186.6 64.0654 186.6 63.9654 186.6 63.7654C186.6 63.6654 186.6 63.4654 186.6 63.3654L193.8 72.8654C193.9 72.9654 194 73.0654 194.1 73.0654C194.2 73.0654 194.3 73.1654 194.4 73.1654H195.3V60.5654H193.8V69.5654C193.8 69.6654 193.8 69.8654 193.8 69.9654C193.8 70.0654 193.8 70.2654 193.8 70.3654L186.6 60.8654C186.5 60.7654 186.4 60.6654 186.4 60.6654C186.3 60.6654 186.2 60.5654 186 60.5654ZM175 60.5654V73.1654H182.7V71.7654H176.7V67.5654H181.6V66.2654H176.7V62.0654H182.7V60.5654H175ZM165.6 61.9654H167.4C168.4 61.9654 169.1 62.1654 169.6 62.5654C170.1 62.9654 170.3 63.4654 170.3 64.2654C170.3 64.6654 170.2 64.9654 170.1 65.2654C170 65.5654 169.8 65.8654 169.5 66.0654C169.2 66.2654 168.9 66.4654 168.6 66.5654C168.2 66.6654 167.8 66.7654 167.3 66.7654H165.5V61.9654H165.6ZM166.9 67.9654C167.1 67.9654 167.3 67.9654 167.4 68.0654C167.5 68.1654 167.6 68.2654 167.7 68.3654L170.9 72.8654C171 73.0654 171.3 73.2654 171.6 73.2654H173.1L169.5 68.2654C169.3 68.0654 169.2 67.8654 168.9 67.7654C169.4 67.6654 169.8 67.4654 170.2 67.2654C170.6 67.0654 170.9 66.7654 171.2 66.4654C171.5 66.1654 171.7 65.7654 171.8 65.4654C171.9 65.0654 172 64.6654 172 64.1654C172 63.6654 171.9 63.1654 171.7 62.7654C171.5 62.3654 171.2 61.9654 170.9 61.6654C170.5 61.3654 170.1 61.1654 169.5 60.9654C168.9 60.7654 168.2 60.7654 167.5 60.7654H164V73.3654H165.7V68.0654H166.9V67.9654ZM160.7 60.5654H159V66.1654H152.3V60.5654H150.6V73.1654H152.3V67.4654H159V73.1654H160.7V60.5654ZM140.5 60.5654V73.1654H148.2V71.7654H142.2V67.5654H147.1V66.2654H142.2V62.0654H148.2V60.5654H140.5ZM132.7 68.9654C132.5 69.5654 132.2 70.0654 131.8 70.4654C131.4 70.8654 131 71.1654 130.4 71.4654C129.9 71.6654 129.2 71.7654 128.6 71.7654H125.6V61.8654H128.6C129.3 61.8654 129.9 61.9654 130.4 62.1654C130.9 62.3654 131.4 62.6654 131.8 63.1654C132.2 63.5654 132.5 64.0654 132.7 64.6654C132.9 65.2654 133 65.9654 133 66.7654C133 67.5654 132.9 68.3654 132.7 68.9654ZM134.3 64.3654C134 63.5654 133.6 62.9654 133 62.3654C132.5 61.7654 131.8 61.3654 131.1 61.0654C130.3 60.7654 129.5 60.5654 128.6 60.5654H124V73.1654H128.7C129.6 73.1654 130.5 72.9654 131.2 72.6654C132 72.3654 132.6 71.9654 133.1 71.3654C133.6 70.7654 134.1 70.1654 134.4 69.3654C134.7 68.5654 134.8 67.7654 134.8 66.7654C134.8 65.7654 134.6 65.1654 134.3 64.3654ZM111.6 60.5654H110.7V73.1654H112.2V64.1654C112.2 64.0654 112.2 63.9654 112.2 63.7654C112.2 63.6654 112.2 63.4654 112.2 63.3654L119.4 72.8654C119.5 72.9654 119.6 73.0654 119.7 73.0654C119.8 73.0654 119.9 73.1654 120 73.1654H120.9V60.5654H119.4V69.5654C119.4 69.6654 119.4 69.8654 119.4 69.9654C119.4 70.0654 119.4 70.2654 119.4 70.3654L112.2 60.8654C112.1 60.7654 112 60.6654 112 60.6654C111.9 60.6654 111.8 60.5654 111.6 60.5654ZM101.5 71.5654C101.1 71.3654 100.7 71.1654 100.5 70.8654C100.2 70.5654 100 70.1654 99.9 69.7654C99.8 69.3654 99.7 68.8654 99.7 68.2654V60.5654H98V68.2654C98 68.9654 98.1 69.6654 98.3 70.2654C98.5 70.8654 98.9 71.4654 99.3 71.8654C99.7 72.3654 100.3 72.6654 100.9 72.9654C101.5 73.2654 102.2 73.3654 103 73.3654C103.8 73.3654 104.5 73.2654 105.1 72.9654C105.7 72.6654 106.2 72.3654 106.7 71.8654C107.1 71.3654 107.5 70.8654 107.7 70.2654C107.9 69.6654 108 68.9654 108 68.2654V60.5654H106.3V68.2654C106.3 68.7654 106.2 69.2654 106.1 69.7654C106 70.1654 105.7 70.5654 105.5 70.8654C105.2 71.1654 104.9 71.4654 104.5 71.5654C104.1 71.6654 103.6 71.8654 103.1 71.8654C102.6 71.8654 101.9 71.7654 101.5 71.5654Z" fill="black"/>
<path d="M247.2 37.3652V38.7652H251.3V49.9652H253V38.7652H257V37.3652H247.2ZM236 37.3652H235.1V49.9652H236.6V40.9652C236.6 40.8652 236.6 40.7652 236.6 40.5652C236.6 40.4652 236.6 40.2652 236.6 40.1652L243.8 49.6652C243.9 49.7652 244 49.8652 244.1 49.8652C244.2 49.8652 244.3 49.9652 244.4 49.9652H245.3V37.3652H243.8V46.2652C243.8 46.3652 243.8 46.5652 243.8 46.6652C243.8 46.7652 243.8 46.9652 243.8 47.0652L236.6 37.5652C236.5 37.4652 236.4 37.3652 236.4 37.3652C236.3 37.3652 236.2 37.3652 236 37.3652ZM224.8 37.3652V49.9652H232.5V48.5652H226.5V44.2652H231.4V42.9652H226.5V38.7652H232.5V37.3652H224.8ZM214.8 45.4652L210.5 37.6652C210.4 37.5652 210.3 37.4652 210.3 37.4652C210.2 37.4652 210.1 37.4652 210 37.4652H208.8V50.0652H210.3V40.7652C210.3 40.6652 210.3 40.4652 210.3 40.3652C210.3 40.2652 210.3 40.0652 210.3 39.9652L214.7 47.8652C214.8 48.1652 215 48.2652 215.3 48.2652H215.5C215.8 48.2652 216 48.1652 216.1 47.8652L220.4 39.9652C220.4 40.0652 220.4 40.2652 220.4 40.3652C220.4 40.4652 220.4 40.6652 220.4 40.7652V50.0652H221.9V37.3652H220.7C220.5 37.3652 220.4 37.3652 220.4 37.3652C220.3 37.3652 220.2 37.4652 220.2 37.5652L216 45.3652C215.9 45.5652 215.8 45.6652 215.8 45.8652C215.7 45.9652 215.7 46.1652 215.6 46.3652C215.5 46.1652 215.5 46.0652 215.4 45.8652C214.9 45.7652 214.9 45.5652 214.8 45.4652ZM198.3 37.3652V49.9652H206V48.5652H200V44.2652H204.9V42.9652H200V38.7652H206V37.3652H198.3ZM189.1 48.3652C188.5 48.1652 188.1 47.7652 187.7 47.3652C187.3 46.9652 187 46.3652 186.8 45.7652C186.6 45.1652 186.5 44.4652 186.5 43.6652C186.5 42.8652 186.6 42.1652 186.8 41.5652C187 40.9652 187.3 40.4652 187.7 39.9652C188.1 39.5652 188.6 39.1652 189.2 38.9652C189.8 38.7652 190.4 38.6652 191.1 38.6652C191.6 38.6652 192 38.6652 192.4 38.7652C192.8 38.8652 193.1 38.9652 193.3 39.0652C193.6 39.1652 193.8 39.2652 194 39.3652C194.2 39.4652 194.3 39.5652 194.5 39.6652C194.6 39.7652 194.7 39.7652 194.8 39.7652C195 39.7652 195.1 39.6652 195.2 39.5652L195.7 38.7652C195.4 38.5652 195.1 38.2652 194.8 38.0652C194.5 37.8652 194.2 37.6652 193.8 37.5652C193.4 37.4652 193 37.3652 192.6 37.2652C192.2 37.1652 191.7 37.1652 191.2 37.1652C190.2 37.1652 189.3 37.3652 188.6 37.6652C187.8 37.9652 187.1 38.3652 186.6 38.9652C186 39.5652 185.6 40.1652 185.3 40.9652C185 41.7652 184.9 42.6652 184.9 43.5652C184.9 44.5652 185.1 45.3652 185.4 46.1652C185.7 46.9652 186.1 47.6652 186.7 48.1652C187.2 48.7652 187.9 49.1652 188.7 49.4652C189.5 49.7652 190.3 49.9652 191.2 49.9652C191.7 49.9652 192.2 49.9652 192.6 49.8652C193 49.7652 193.5 49.7652 193.8 49.5652C194.2 49.4652 194.5 49.2652 194.9 49.1652C195.2 48.9652 195.6 48.7652 195.9 48.5652V43.7652H192.1V44.7652C192.1 44.8652 192.1 44.9652 192.2 44.9652C192.3 45.0652 192.4 45.0652 192.5 45.0652H194.4V47.8652C194.2 47.9652 194 48.0652 193.7 48.1652C193.5 48.2652 193.2 48.3652 193 48.3652C192.8 48.4652 192.5 48.4652 192.2 48.4652C191.9 48.4652 191.6 48.4652 191.3 48.4652C190.3 48.7652 189.6 48.6652 189.1 48.3652ZM177.7 40.1652C177.8 39.9652 177.8 39.8652 177.9 39.6652C178 39.4652 178 39.2652 178.1 38.9652C178.2 39.4652 178.3 39.8652 178.5 40.1652L180.5 45.2652H175.8L177.7 40.1652ZM179 37.3652H177.3L172.3 49.9652H173.6C173.7 49.9652 173.9 49.9652 174 49.8652C174.1 49.7652 174.2 49.6652 174.2 49.5652L175.4 46.5652H181L182.2 49.5652C182.2 49.6652 182.3 49.7652 182.4 49.8652C182.5 49.9652 182.6 49.9652 182.8 49.9652H184.1L179 37.3652ZM164.4 48.3652C163.8 48.1652 163.4 47.7652 163 47.3652C162.6 46.9652 162.3 46.3652 162.1 45.7652C161.9 45.1652 161.8 44.4652 161.8 43.6652C161.8 42.8652 161.9 42.1652 162.1 41.5652C162.3 40.9652 162.6 40.4652 163 39.9652C163.4 39.5652 163.9 39.1652 164.5 38.9652C165.1 38.7652 165.7 38.6652 166.4 38.6652C166.9 38.6652 167.3 38.6652 167.7 38.7652C168.1 38.8652 168.4 38.9652 168.6 39.0652C168.9 39.1652 169.1 39.2652 169.3 39.3652C169.5 39.4652 169.6 39.5652 169.8 39.6652C169.9 39.7652 170 39.7652 170.1 39.7652C170.3 39.7652 170.4 39.6652 170.5 39.5652L171 38.7652C170.7 38.5652 170.4 38.2652 170.1 38.0652C169.8 37.8652 169.5 37.6652 169.1 37.5652C168.7 37.4652 168.3 37.3652 167.9 37.2652C167.5 37.1652 167 37.1652 166.5 37.1652C165.5 37.1652 164.6 37.3652 163.9 37.6652C163.1 37.9652 162.4 38.3652 161.9 38.9652C161.3 39.5652 160.9 40.1652 160.6 40.9652C160.3 41.7652 160.2 42.6652 160.2 43.5652C160.2 44.5652 160.4 45.3652 160.7 46.1652C161 46.9652 161.4 47.6652 162 48.1652C162.5 48.7652 163.2 49.1652 164 49.4652C164.8 49.7652 165.6 49.9652 166.5 49.9652C167 49.9652 167.5 49.9652 167.9 49.8652C168.3 49.7652 168.8 49.7652 169.1 49.5652C169.5 49.4652 169.8 49.2652 170.2 49.1652C170.5 48.9652 170.9 48.7652 171.2 48.5652V43.7652H167.4V44.7652C167.4 44.8652 167.4 44.9652 167.5 44.9652C167.6 45.0652 167.7 45.0652 167.8 45.0652H169.7V47.8652C169.5 47.9652 169.3 48.0652 169 48.1652C168.8 48.2652 168.5 48.3652 168.3 48.3652C168.1 48.3652 167.8 48.4652 167.5 48.4652C167.2 48.4652 166.9 48.4652 166.6 48.4652C165.6 48.7652 165 48.6652 164.4 48.3652ZM148.2 37.3652H147.3V49.9652H148.8V40.9652C148.8 40.8652 148.8 40.7652 148.8 40.5652C148.8 40.4652 148.8 40.2652 148.8 40.1652L156 49.6652C156.1 49.7652 156.2 49.8652 156.3 49.8652C156.4 49.8652 156.5 49.9652 156.6 49.9652H157.5V37.3652H156V46.2652C156 46.3652 156 46.5652 156 46.6652C156 46.7652 156 46.9652 156 47.0652L148.8 37.5652C148.7 37.4652 148.6 37.3652 148.6 37.3652C148.5 37.3652 148.4 37.3652 148.2 37.3652ZM137.1 37.3652V49.9652H144.8V48.5652H138.8V44.2652H143.7V42.9652H138.8V38.7652H144.8V37.3652H137.1ZM123.6 38.7652H125.5C126.5 38.7652 127.3 38.9652 127.8 39.3652C128.3 39.7652 128.6 40.2652 128.6 41.0652C128.6 41.4652 128.5 41.7652 128.4 42.0652C128.3 42.3652 128.1 42.6652 127.8 42.8652C127.5 43.0652 127.2 43.2652 126.8 43.3652C126.4 43.4652 126 43.5652 125.5 43.5652H123.7V38.7652H123.6ZM125 44.7652C125.2 44.7652 125.4 44.7652 125.5 44.8652C125.6 44.9652 125.7 45.0652 125.8 45.1652L129.1 49.6652C129.2 49.8652 129.5 50.0652 129.8 50.0652H131.3L127.5 45.0652C127.3 44.8652 127.1 44.6652 126.9 44.5652C127.4 44.4652 127.8 44.2652 128.2 44.0652C128.6 43.8652 128.9 43.5652 129.2 43.2652C129.5 42.9652 129.7 42.5652 129.8 42.2652C129.9 41.8652 130 41.4652 130 40.9652C130 40.4652 129.9 39.9652 129.7 39.5652C129.5 39.1652 129.2 38.7652 128.8 38.4652C128.4 38.1652 127.9 37.9652 127.3 37.7652C126.7 37.5652 126 37.5652 125.2 37.5652H121.6V50.1652H123.3V44.8652H125V44.7652ZM116.3 34.9652C116.2 34.8652 116.2 34.7652 116.1 34.6652C116 34.5652 115.9 34.4652 115.8 34.4652C115.7 34.3652 115.6 34.3652 115.4 34.3652C115.3 34.3652 115.1 34.3652 115 34.4652C114.9 34.5652 114.8 34.5652 114.7 34.6652C114.6 34.7652 114.5 34.8652 114.5 34.9652C114.4 35.0652 114.4 35.1652 114.4 35.3652C114.4 35.4652 114.4 35.6652 114.5 35.7652C114.6 35.8652 114.6 35.9652 114.7 36.0652C114.8 36.1652 114.9 36.2652 115 36.2652C115.1 36.3652 115.2 36.3652 115.4 36.3652C115.5 36.3652 115.7 36.3652 115.8 36.2652C115.9 36.1652 116 36.1652 116.1 36.0652C116.2 35.9652 116.3 35.8652 116.3 35.7652C116.4 35.6652 116.4 35.5652 116.4 35.3652C116.3 35.1652 116.3 35.0652 116.3 34.9652ZM112.4 34.9652C112.3 34.8652 112.3 34.7652 112.2 34.6652C112.1 34.5652 112 34.4652 111.9 34.4652C111.8 34.3652 111.6 34.3652 111.5 34.3652C111.4 34.3652 111.3 34.3652 111.1 34.4652C111 34.5652 110.9 34.5652 110.8 34.6652C110.7 34.7652 110.6 34.8652 110.6 34.9652C110.5 35.0652 110.5 35.1652 110.5 35.3652C110.5 35.4652 110.5 35.6652 110.6 35.7652C110.7 35.8652 110.7 35.9652 110.8 36.0652C110.9 36.1652 111 36.2652 111.1 36.2652C111.2 36.3652 111.3 36.3652 111.5 36.3652C111.6 36.3652 111.8 36.3652 111.9 36.2652C112 36.1652 112.1 36.1652 112.2 36.0652C112.3 35.9652 112.4 35.8652 112.4 35.7652C112.5 35.6652 112.5 35.5652 112.5 35.3652C112.5 35.1652 112.5 35.0652 112.4 34.9652ZM112 48.3652C111.6 48.1652 111.2 47.9652 110.9 47.6652C110.6 47.3652 110.4 46.9652 110.2 46.5652C110 46.1652 110 45.6652 110 45.0652V37.3652H108.3V45.0652C108.3 45.7652 108.4 46.4652 108.7 47.0652C108.9 47.6652 109.3 48.2652 109.7 48.6652C110.1 49.1652 110.7 49.4652 111.3 49.7652C111.9 50.0652 112.6 50.1652 113.4 50.1652C114.2 50.1652 114.9 50.0652 115.5 49.7652C116.1 49.4652 116.7 49.1652 117.1 48.6652C117.5 48.1652 117.9 47.6652 118.1 47.0652C118.3 46.4652 118.5 45.7652 118.5 45.0652V37.3652H116.8V45.0652C116.8 45.5652 116.7 46.0652 116.6 46.5652C116.4 46.9652 116.2 47.3652 115.9 47.6652C115.6 47.9652 115.3 48.2652 114.8 48.3652C114.4 48.5652 113.9 48.6652 113.4 48.6652C112.9 48.6652 112.4 48.5652 112 48.3652ZM98.1 37.3652V49.9652H99.9V44.5652H105.2V43.1652H99.9V38.7652H106.1V37.3652H98.1Z" fill="black"/>
<path d="M272.1 25.7653C271.4 25.4653 270.9 25.1653 270.4 24.6653C269.9 24.1653 269.6 23.5653 269.3 22.8653C269 22.1653 268.9 21.3653 268.9 20.4653C268.9 19.5653 269 18.8653 269.3 18.1653C269.6 17.4653 269.9 16.8653 270.4 16.3653C270.9 15.8653 271.4 15.4653 272.1 15.2653C272.8 14.9653 273.5 14.8653 274.3 14.8653C274.9 14.8653 275.5 14.9653 275.9 15.0653C276.3 15.1653 276.7 15.2653 277 15.4653C277.3 15.5653 277.5 15.7653 277.7 15.8653C277.9 15.9653 278 16.0653 278.1 16.0653C278.1 16.0653 278.2 16.0653 278.3 16.0653C278.4 16.0653 278.5 16.0653 278.5 15.9653L278.7 15.5653C278.4 15.3653 278.1 15.0653 277.8 14.9653C277.5 14.7653 277.2 14.6653 276.8 14.4653C276.4 14.3653 276.1 14.2653 275.7 14.1653C275.3 14.0653 274.8 14.0653 274.4 14.0653C273.4 14.0653 272.5 14.2653 271.8 14.5653C271 14.8653 270.3 15.2653 269.8 15.8653C269.2 16.4653 268.8 17.0653 268.5 17.8653C268.2 18.6653 268.1 19.5653 268.1 20.4653C268.1 21.4653 268.2 22.2653 268.5 23.0653C268.8 23.8653 269.2 24.5653 269.8 25.0653C270.3 25.6653 271 26.0653 271.7 26.3653C272.5 26.6653 273.3 26.8653 274.2 26.8653C274.7 26.8653 275.2 26.8653 275.7 26.7653C276.1 26.6653 276.6 26.6653 277 26.4653C277.4 26.3653 277.8 26.1653 278.1 26.0653C278.4 25.8653 278.8 25.6653 279.1 25.4653V21.0653H275.6V21.5653C275.6 21.6653 275.6 21.6653 275.7 21.6653C275.7 21.6653 275.8 21.7653 275.9 21.7653H278.3V25.1653C278 25.3653 277.7 25.4653 277.5 25.5653C277.2 25.6653 276.9 25.7653 276.6 25.8653C276.3 25.9653 276 26.0653 275.6 26.0653C275.2 26.0653 274.8 26.1653 274.4 26.1653C273.5 26.1653 272.7 26.0653 272.1 25.7653ZM255.7 14.2653H255.3V26.7653H256.1V16.2653C256.1 16.0653 256.1 15.9653 256.1 15.7653L264.4 26.5653C264.5 26.6653 264.6 26.7653 264.7 26.7653H265.1V14.2653H264.3V24.6653C264.3 24.8653 264.3 24.9653 264.3 25.1653L256 14.4653C255.9 14.3653 255.9 14.3653 255.8 14.3653C255.8 14.2653 255.7 14.2653 255.7 14.2653ZM245.1 25.7653C244.6 25.5653 244.2 25.2653 243.9 24.8653C243.6 24.4653 243.3 24.0653 243.1 23.5653C242.9 23.0653 242.8 22.5653 242.8 21.9653V14.2653H241.9V21.9653C241.9 22.6653 242 23.2653 242.2 23.8653C242.4 24.4653 242.7 24.9653 243.2 25.4653C243.6 25.8653 244.1 26.2653 244.7 26.4653C245.3 26.7653 246 26.8653 246.7 26.8653C247.4 26.8653 248.1 26.7653 248.7 26.4653C249.3 26.1653 249.8 25.8653 250.2 25.4653C250.6 25.0653 250.9 24.4653 251.2 23.8653C251.5 23.2653 251.5 22.6653 251.5 21.9653V14.2653H250.6V21.9653C250.6 22.5653 250.5 23.0653 250.3 23.5653C250.1 24.0653 249.9 24.4653 249.5 24.8653C249.2 25.2653 248.8 25.5653 248.3 25.7653C247.8 25.9653 247.3 26.0653 246.7 26.0653C246.1 26.0653 245.6 25.9653 245.1 25.7653ZM230 14.2653V15.0653H234.5V26.7653H235.4V15.0653H239.9V14.2653H230ZM221.3 14.2653V26.7653H222.2V21.0653H228V20.3653H222.2V15.1653H228.9V14.4653H221.3V14.2653ZM217.2 14.2653H216.3V26.7653H217.2V14.2653ZM203.8 14.2653V15.0653H208.3V26.7653H209.2V15.0653H213.7V14.2653H203.8ZM202.4 15.3653C202 14.9653 201.5 14.6653 201 14.4653C200.5 14.2653 199.9 14.1653 199.2 14.1653C198.6 14.1653 198.1 14.2653 197.6 14.4653C197.1 14.6653 196.8 14.8653 196.4 15.1653C196 15.4653 195.9 15.7653 195.7 16.1653C195.5 16.5653 195.5 16.9653 195.5 17.3653C195.5 17.8653 195.6 18.3653 195.8 18.6653C196 19.0653 196.2 19.3653 196.5 19.5653C196.8 19.7653 197.1 19.9653 197.5 20.1653C197.9 20.3653 198.3 20.4653 198.7 20.5653C199.1 20.6653 199.5 20.7653 199.9 20.9653C200.3 21.0653 200.6 21.2653 200.9 21.4653C201.2 21.6653 201.4 21.8653 201.6 22.1653C201.8 22.4653 201.9 22.7653 201.9 23.2653C201.9 23.6653 201.8 24.0653 201.7 24.3653C201.6 24.7653 201.3 25.0653 201.1 25.2653C200.8 25.5653 200.5 25.7653 200.1 25.8653C199.7 25.9653 199.3 26.0653 198.8 26.0653C198.4 26.0653 198.1 26.0653 197.8 25.9653C197.5 25.8653 197.3 25.7653 197 25.6653C196.8 25.5653 196.6 25.4653 196.4 25.3653C196.2 25.2653 196.1 25.1653 196 25.0653C195.9 24.9653 195.8 24.8653 195.7 24.7653C195.6 24.6653 195.5 24.6653 195.5 24.6653C195.4 24.6653 195.3 24.6653 195.2 24.7653L194.9 25.1653C195.4 25.6653 195.9 26.0653 196.5 26.3653C197.1 26.6653 197.8 26.7653 198.7 26.7653C199.3 26.7653 199.9 26.6653 200.4 26.4653C200.9 26.2653 201.3 25.9653 201.7 25.6653C202 25.3653 202.3 24.9653 202.5 24.4653C202.7 23.9653 202.8 23.4653 202.8 22.9653C202.8 22.4653 202.7 22.0653 202.5 21.6653C202.3 21.3653 202.1 21.0653 201.8 20.7653C201.5 20.5653 201.2 20.3653 200.8 20.1653C200.4 19.9653 200 19.8653 199.6 19.7653C199.2 19.6653 198.8 19.4653 198.4 19.3653C198 19.2653 197.7 19.0653 197.4 18.8653C197.1 18.6653 196.9 18.4653 196.7 18.1653C196.5 17.8653 196.4 17.5653 196.4 17.1653C196.4 16.8653 196.5 16.5653 196.6 16.2653C196.7 15.9653 196.9 15.6653 197.1 15.4653C197.3 15.2653 197.6 15.0653 198 14.9653C198.4 14.8653 198.8 14.7653 199.2 14.7653C199.7 14.7653 200.1 14.8653 200.4 14.9653C200.7 15.0653 201 15.1653 201.2 15.3653C201.4 15.4653 201.6 15.6653 201.7 15.7653C201.8 15.8653 201.9 15.9653 202 15.9653C202.1 15.9653 202.2 15.9653 202.2 15.8653L202.4 15.3653ZM181.9 14.2653V26.7653H189.5V26.0653H182.8V20.8653H188.4V20.1653H182.8V15.1653H189.5V14.4653H181.9V14.2653ZM178.2 14.2653H177.3V20.0653H169.3V14.2653H168.4V26.7653H169.3V20.7653H177.3V26.7653H178.2V14.2653ZM164.9 24.6653C164.8 24.6653 164.8 24.6653 164.9 24.6653C164.6 24.9653 164.3 25.1653 164.1 25.3653C163.8 25.5653 163.6 25.6653 163.3 25.7653C163 25.8653 162.7 25.9653 162.3 26.0653C161.9 26.1653 161.5 26.1653 161.1 26.1653C160.4 26.1653 159.7 26.0653 159.1 25.7653C158.5 25.4653 157.9 25.1653 157.5 24.6653C157 24.1653 156.7 23.5653 156.4 22.8653C156.1 22.1653 156 21.3653 156 20.4653C156 19.5653 156.1 18.8653 156.4 18.1653C156.7 17.4653 157 16.8653 157.5 16.3653C158 15.8653 158.5 15.4653 159.2 15.2653C159.8 14.9653 160.6 14.8653 161.3 14.8653C161.7 14.8653 162.1 14.8653 162.4 14.9653C162.7 15.0653 163 15.0653 163.3 15.1653C163.6 15.2653 163.8 15.3653 164 15.4653C164.2 15.5653 164.3 15.6653 164.5 15.7653C164.6 15.8653 164.7 15.9653 164.8 15.9653C164.9 16.0653 165 16.0653 165 16.0653C165.1 16.0653 165.2 16.0653 165.2 15.9653L165.5 15.5653C165.2 15.3653 164.9 15.0653 164.6 14.8653C164.3 14.6653 164 14.5653 163.7 14.3653C163.4 14.2653 163 14.1653 162.6 14.0653C162.2 13.9653 161.8 13.9653 161.3 13.9653C160.4 13.9653 159.5 14.1653 158.8 14.4653C158 14.7653 157.4 15.1653 156.8 15.7653C156.3 16.3653 155.8 16.9653 155.5 17.7653C155.2 18.5653 155 19.3653 155 20.3653C155 21.3653 155.1 22.1653 155.4 22.9653C155.7 23.7653 156.1 24.4653 156.6 24.9653C157.1 25.5653 157.8 25.9653 158.5 26.2653C159.2 26.5653 160 26.7653 160.9 26.7653C161.4 26.7653 161.9 26.7653 162.3 26.6653C162.7 26.5653 163.1 26.4653 163.5 26.2653C163.9 26.0653 164.2 25.9653 164.5 25.6653C164.8 25.4653 165.1 25.1653 165.4 24.9653L165 24.5653C165.1 24.6653 165 24.6653 164.9 24.6653ZM152.7 15.3653C152.3 14.9653 151.8 14.6653 151.3 14.4653C150.8 14.2653 150.2 14.1653 149.5 14.1653C148.9 14.1653 148.4 14.2653 147.9 14.4653C147.4 14.6653 147.1 14.8653 146.7 15.1653C146.3 15.4653 146.2 15.7653 146 16.1653C145.8 16.5653 145.8 16.9653 145.8 17.3653C145.8 17.8653 145.9 18.3653 146.1 18.6653C146.3 19.0653 146.5 19.3653 146.8 19.5653C147.1 19.7653 147.4 19.9653 147.8 20.1653C148.2 20.3653 148.6 20.4653 149 20.5653C149.4 20.6653 149.8 20.7653 150.2 20.9653C150.6 21.0653 150.9 21.2653 151.2 21.4653C151.5 21.6653 151.7 21.8653 151.9 22.1653C152.1 22.4653 152.2 22.7653 152.2 23.2653C152.2 23.6653 152.1 24.0653 152 24.3653C151.9 24.7653 151.6 25.0653 151.4 25.2653C151.1 25.5653 150.8 25.7653 150.4 25.8653C150 25.9653 149.6 26.0653 149.1 26.0653C148.7 26.0653 148.4 26.0653 148.1 25.9653C147.8 25.8653 147.6 25.7653 147.3 25.6653C147.1 25.5653 146.9 25.4653 146.7 25.3653C146.5 25.2653 146.4 25.1653 146.3 25.0653C146.2 24.9653 146.1 24.8653 146 24.7653C145.9 24.6653 145.8 24.6653 145.8 24.6653C145.7 24.6653 145.6 24.6653 145.5 24.7653L145.2 25.1653C145.7 25.6653 146.2 26.0653 146.8 26.3653C147.4 26.6653 148.1 26.7653 149 26.7653C149.6 26.7653 150.2 26.6653 150.7 26.4653C151.2 26.2653 151.6 25.9653 152 25.6653C152.3 25.3653 152.6 24.9653 152.8 24.4653C153 23.9653 153.1 23.4653 153.1 22.9653C153.1 22.4653 153 22.0653 152.8 21.6653C152.6 21.3653 152.4 21.0653 152.1 20.7653C151.8 20.5653 151.5 20.3653 151.1 20.1653C150.7 19.9653 150.3 19.8653 149.9 19.7653C149.5 19.6653 149.1 19.4653 148.7 19.3653C148.3 19.2653 148 19.0653 147.7 18.8653C147.4 18.6653 147.2 18.4653 147 18.1653C146.8 17.8653 146.7 17.5653 146.7 17.1653C146.7 16.8653 146.8 16.5653 146.9 16.2653C147 15.9653 147.2 15.6653 147.4 15.4653C147.6 15.2653 147.9 15.0653 148.3 14.9653C148.7 14.8653 149.1 14.7653 149.5 14.7653C150 14.7653 150.4 14.8653 150.7 14.9653C151 15.0653 151.3 15.1653 151.5 15.3653C151.7 15.4653 151.9 15.6653 152 15.7653C152.1 15.8653 152.2 15.9653 152.3 15.9653C152.4 15.9653 152.5 15.9653 152.5 15.8653L152.7 15.3653ZM134.3 14.2653V15.0653H138.8V26.7653H139.7V15.0653H144.2V14.2653H134.3ZM125.7 25.7653C125.2 25.5653 124.8 25.2653 124.5 24.8653C124.2 24.4653 123.9 24.0653 123.7 23.5653C123.5 23.0653 123.4 22.5653 123.4 21.9653V14.2653H122.5V21.9653C122.5 22.6653 122.6 23.2653 122.8 23.8653C123 24.4653 123.3 24.9653 123.8 25.4653C124.2 25.8653 124.7 26.2653 125.3 26.4653C125.9 26.7653 126.6 26.8653 127.3 26.8653C128 26.8653 128.7 26.7653 129.3 26.4653C129.9 26.1653 130.4 25.8653 130.8 25.4653C131.2 25.0653 131.5 24.4653 131.8 23.8653C132 23.2653 132.1 22.6653 132.1 21.9653V14.2653H131.2V21.9653C131.2 22.5653 131.1 23.0653 130.9 23.5653C130.7 24.0653 130.5 24.4653 130.1 24.8653C129.8 25.2653 129.4 25.5653 128.9 25.7653C128.4 25.9653 127.9 26.0653 127.3 26.0653C126.8 26.0653 126.2 25.9653 125.7 25.7653ZM112.1 14.2653V26.7653H119.7V26.0653H113V20.8653H118.6V20.1653H113V15.1653H119.7V14.4653H112.1V14.2653ZM107.8 22.8653C107.6 23.5653 107.2 24.1653 106.8 24.5653C106.4 25.0653 105.8 25.3653 105.2 25.6653C104.6 25.8653 103.9 26.0653 103.1 26.0653H99.4V15.0653H103.1C103.9 15.0653 104.6 15.1653 105.2 15.4653C105.8 15.6653 106.4 16.0653 106.8 16.5653C107.2 17.0653 107.6 17.5653 107.8 18.2653C108 18.9653 108.2 19.7653 108.2 20.5653C108.2 21.3653 108 22.1653 107.8 22.8653ZM108.7 17.9653C108.4 17.1653 108 16.5653 107.5 15.9653C107 15.4653 106.3 14.9653 105.6 14.7653C104.9 14.4653 104 14.3653 103.1 14.3653H98.5V26.8653H103.1C104 26.8653 104.8 26.7653 105.6 26.4653C106.3 26.1653 107 25.7653 107.5 25.2653C108 24.7653 108.4 24.0653 108.7 23.2653C109 22.4653 109.1 21.6653 109.1 20.6653C109.1 19.5653 109 18.6653 108.7 17.9653Z" fill="black"/>
<path d="M38.6 80.0653C37.6 80.0653 36.6 80.0653 35.7 79.9653C31 79.4653 25 78.1653 19.7 71.6653C14.5 65.0653 14.4 58.8653 14.9 54.2653C15.3 50.4653 18.6 31.1653 41.6 25.7653C44.2 25.1653 46.8 24.6653 49.3 24.2653C62.8 22.3653 72.7 24.6653 74.6 27.0653C76.2 29.0653 77.9 40.8653 69.1 59.6653C61.9 74.9653 49.7 78.7653 43.1 79.7653C41.6 79.9653 40.1 80.0653 38.6 80.0653ZM59.2 25.3653C56.4 25.3653 53.2 25.5653 49.7 26.0653C47.2 26.3653 44.7 26.8653 42.1 27.4653C20.2 32.5653 17.1 50.7653 16.8 54.3653C16.3 58.6653 16.4 64.3653 21.2 70.4653C26.1 76.3653 31.7 77.6653 36 78.0653C38.2 78.2653 40.6 78.2653 43 77.8653C49.3 76.9653 60.8 73.3653 67.6 58.8653C76.6 39.6653 74.1 29.0653 73.4 28.1653C72.4 27.1653 67.4 25.3653 59.2 25.3653Z" fill="#FFCC00"/>
<path d="M32.3 75.8653C27.9 75.8653 23.9 74.6653 20 72.0653C13.1 67.2653 11.2 61.3653 10.3 56.7653C9.7 52.9653 7.1 33.5653 27.6 21.6653C38.1 15.5653 46.1 13.4653 51.1 12.7653C52.6 12.5653 57.7 11.9653 59.6 13.2653C61.7 14.6653 66.8 25.4653 63.8 46.0653C60.5 69.5653 41.5 74.4653 37.8 75.1653C37.2 75.2653 36.5 75.3653 35.9 75.4653C34.7 75.7653 33.5 75.8653 32.3 75.8653ZM55.3 14.2653C54.2 14.2653 52.9 14.3653 51.3 14.5653C46.5 15.2653 38.7 17.2653 28.5 23.1653C9.1 34.5653 11.5 52.8653 12.2 56.3653C13 60.6653 14.8 66.0653 21.1 70.4653C25.6 73.4653 30.3 74.4653 35.7 73.7653C36.3 73.6653 36.9 73.5653 37.5 73.4653C41 72.7653 58.9 68.0653 62.1 45.8653C65.1 24.8653 59.5 15.4653 58.7 14.8653C58.2 14.5653 57 14.2653 55.3 14.2653Z" fill="#FF0000"/>
<path d="M27.2 73.2653C25 73.2653 22.9 72.9653 20.5 72.2653C12.5 69.6653 9 64.5653 6.8 60.4653C5 57.0653 -3.1 39.2653 13.1 21.8653C24.6 9.36534 34.9 5.06534 39.2 4.46534C40.1 4.36534 40.7 4.36534 41.2 4.56534C43.6 5.26534 51.6 14.1653 54.8 34.6653C58.5 58.0653 41.8 68.3653 38.4 70.1653C35.4 71.7653 32.8 72.6653 30 73.0653C29.1 73.1653 28.2 73.2653 27.2 73.2653ZM40.2 6.16534C40 6.16534 39.8 6.16534 39.4 6.26534C35.4 6.86534 25.6 10.9653 14.4 23.1653C-0.900001 39.5653 6.7 56.3653 8.4 59.5653C10.4 63.3653 13.7 68.0653 21 70.4653C24.1 71.3653 26.9 71.5653 29.7 71.1653C32.2 70.7653 34.7 69.9653 37.5 68.4653C40.7 66.7653 56.4 57.0653 53 34.8653C49.8 13.9653 41.7 6.56534 40.7 6.26534C40.6 6.26534 40.4 6.16534 40.2 6.16534Z" fill="black"/>
</svg>
