<svg width="43" height="39" viewBox="0 0 43 39" fill="none" xmlns="http://www.w3.org/2000/svg">
<path d="M39.7816 7.55047C36.3258 6.71631 32.6316 7.25256 29.5333 9.21878C28.6396 9.75503 27.8054 10.4104 27.0905 11.185C26.2563 12.0192 25.5413 12.9725 24.9455 13.9258C24.2901 11.8404 23.2772 9.81461 21.9068 8.02713C21.4301 7.37172 20.8939 6.77589 20.298 6.18007C15.4123 1.29429 8.67942 -0.37402 2.48283 1.11555C2.48283 1.11555 2.30408 1.59221 2.30408 1.71137V1.77095C1.887 3.3201 1.70825 4.98842 1.70825 6.71631C1.70825 17.7391 10.6456 26.6765 21.6684 26.6765C27.9246 26.6765 33.4658 23.8165 37.1599 19.2882C39.8411 15.892 40.7349 11.5425 39.7816 7.55047Z" fill="#1F2937"/>
<path fill-rule="evenodd" clip-rule="evenodd" d="M3.41665 34.8357V27.2197H0V38.2523H42.5129V27.2197H39.0962V34.8357H3.41665Z" fill="#1F2937"/>
</svg>
