<svg width="66" height="59" viewBox="0 0 66 59" fill="none" xmlns="http://www.w3.org/2000/svg">
<path d="M61.6104 11.2247C56.2732 9.93519 50.5679 10.7642 45.7828 13.8038C44.4025 14.6328 43.1142 15.646 42.01 16.8435C40.7217 18.133 39.6174 19.6068 38.6972 21.0805C37.685 17.8567 36.1206 14.7249 34.0042 11.9616C33.268 10.9484 32.4398 10.0273 31.5196 9.1062C23.9739 1.55316 13.5756 -1.02593 4.00543 1.27683C4.00543 1.27683 3.72937 2.01371 3.72937 2.19793V2.29004C3.08522 4.68491 2.80916 7.26399 2.80916 9.93519C2.80916 26.9756 16.6123 40.7921 33.6361 40.7921C43.2983 40.7921 51.8562 36.3708 57.5615 29.3705C61.7024 24.1202 63.0827 17.3961 61.6104 11.2247Z" fill="#48AD9C"/>
<path fill-rule="evenodd" clip-rule="evenodd" d="M5.44765 53.4056V41.632H0.170898V58.6875H65.8287V41.632H60.552V53.4056H5.44765Z" fill="#1F2937"/>
</svg>
