<svg width="64" height="64" viewBox="0 0 64 64" fill="none" xmlns="http://www.w3.org/2000/svg">
<path d="M24.48 12L28.9333 5.33334L36.4 10.32C40.32 8.10668 45.8666 8.64001 50.3733 11.6533L38.5333 29.3333C34 26.3733 31.4133 21.4667 32 16.9867L23.4666 29.68C23.8133 30.4 24 31.2 24 32C23.9949 33.2495 23.5514 34.4575 22.7466 35.4133L32.341 49.8371H25.9853L17.5466 37.2C16.3563 36.9443 15.2893 36.2891 14.5228 35.3432C13.7563 34.3972 13.3366 33.2175 13.3333 32C13.3333 30.5855 13.8952 29.229 14.8954 28.2288C15.8956 27.2286 17.2522 26.6667 18.6666 26.6667H19.04L27.52 14L24.48 12Z" fill="#48AD9C"/>
<path d="M44.4533 25.3333L48.88 18.6667C50.6666 19.8933 51.2266 22.3733 50 24.2133C48.7733 26.0533 46.2666 26.5333 44.4533 25.3333Z" fill="#1F2937"/>
<path d="M18.6666 53.3474V58.6667H45.3333V53.3474H18.6666Z" fill="#1F2937"/>
</svg>
