<svg width="373" height="45" viewBox="0 0 373 45" fill="none" xmlns="http://www.w3.org/2000/svg">
<path d="M71.025 37.5135C69.1876 37.5135 67.5899 37.194 66.2319 36.5549C64.9005 35.9158 63.7954 35.0637 62.9166 33.9986C62.0379 32.9068 61.3722 31.7085 60.9195 30.4037C60.4934 29.0989 60.2804 27.7941 60.2804 26.4893V25.7703C60.2804 24.4123 60.4934 23.0808 60.9195 21.776C61.3722 20.4712 62.0379 19.2996 62.9166 18.2611C63.822 17.1959 64.9404 16.3438 66.2718 15.7047C67.6033 15.0657 69.161 14.7461 70.9451 14.7461C72.7292 14.7461 74.327 15.079 75.7383 15.7447C77.1762 16.4104 78.3212 17.3557 79.1734 18.5806C80.0521 19.7789 80.5447 21.2035 80.6512 22.8545H76.9765C76.7901 21.5231 76.1776 20.418 75.1391 19.5392C74.1006 18.6339 72.7026 18.1812 70.9451 18.1812C69.4273 18.1812 68.1625 18.5274 67.1506 19.2197C66.1387 19.912 65.3798 20.8574 64.8738 22.0556C64.3679 23.2539 64.1149 24.612 64.1149 26.1298C64.1149 27.5944 64.3679 28.9391 64.8738 30.164C65.3798 31.3623 66.1387 32.321 67.1506 33.0399C68.1891 33.7323 69.4806 34.0784 71.025 34.0784C72.2233 34.0784 73.2618 33.8654 74.1406 33.4394C75.0193 33.0133 75.725 32.4408 76.2575 31.7218C76.7901 31.0028 77.1096 30.1907 77.2162 29.2853H80.8909C80.811 30.9629 80.3184 32.4142 79.413 33.6391C78.5343 34.864 77.3626 35.8226 75.898 36.515C74.4601 37.1807 72.8358 37.5135 71.025 37.5135ZM90.8944 37.4336C88.3647 37.4336 86.4208 36.6082 85.0627 34.9572C83.7047 33.3062 83.0257 30.923 83.0257 27.8074V15.4251H86.8602V28.5663C86.8602 30.2439 87.3129 31.562 88.2182 32.5207C89.1236 33.4527 90.3485 33.9187 91.893 33.9187C93.4907 33.9187 94.7955 33.4127 95.8074 32.4008C96.8193 31.3623 97.3252 29.951 97.3252 28.1669V15.4251H101.16V36.7946H98.1241V27.6476H98.6034C98.6034 29.7513 98.3238 31.5354 97.7646 33C97.2054 34.4379 96.3666 35.543 95.2482 36.3152C94.1564 37.0608 92.7584 37.4336 91.0542 37.4336H90.8944ZM106.23 36.7946V7.63628H110.064V36.7946H106.23ZM103.274 10.6719V7.63628H110.064V10.6719H103.274ZM123.131 37.0342C121.533 37.0342 120.148 36.8079 118.977 36.3552C117.832 35.9025 116.94 35.1303 116.301 34.0385C115.688 32.9201 115.382 31.4156 115.382 29.525V8.99434H119.057V30.0043C119.057 31.1493 119.363 32.0414 119.975 32.6804C120.614 33.2929 121.506 33.5991 122.651 33.5991H126.406V37.0342H123.131ZM111.707 18.341V15.4651H126.406V18.341H111.707ZM130.272 36.7946V15.4651H134.106V36.7946H130.272ZM126.996 18.5007V15.4651H134.106V18.5007H126.996ZM131.35 12.03C130.498 12.03 129.859 11.8037 129.433 11.351C129.034 10.8983 128.834 10.3258 128.834 9.63343C128.834 8.94108 129.034 8.36857 129.433 7.91588C129.859 7.4632 130.498 7.23686 131.35 7.23686C132.202 7.23686 132.828 7.4632 133.228 7.91588C133.654 8.36857 133.867 8.94108 133.867 9.63343C133.867 10.3258 133.654 10.8983 133.228 11.351C132.828 11.8037 132.202 12.03 131.35 12.03ZM143.478 36.7946L136.208 15.4651H140.202L147.312 36.7946H143.478ZM144.436 36.7946V33.7589H149.07V36.7946H144.436ZM146.274 36.7946L152.465 15.4651H156.219L149.908 36.7946H146.274ZM171.385 36.7946V30.4037H170.746V23.0143C170.746 21.5497 170.36 20.4446 169.588 19.699C168.842 18.9534 167.737 18.5806 166.272 18.5806C165.447 18.5806 164.595 18.5939 163.716 18.6206C162.837 18.6472 161.999 18.6738 161.2 18.7005C160.401 18.7271 159.709 18.767 159.123 18.8203V15.4651C159.709 15.4118 160.321 15.3719 160.96 15.3453C161.626 15.292 162.305 15.2654 162.997 15.2654C163.689 15.2387 164.355 15.2254 164.994 15.2254C167.178 15.2254 168.962 15.4917 170.347 16.0243C171.731 16.5302 172.757 17.369 173.422 18.5407C174.088 19.7123 174.421 21.2967 174.421 23.2939V36.7946H171.385ZM164.395 37.3538C162.797 37.3538 161.413 37.0875 160.241 36.5549C159.096 35.9957 158.204 35.1968 157.565 34.1583C156.952 33.1198 156.646 31.8683 156.646 30.4037C156.646 28.8859 156.979 27.621 157.645 26.6091C158.337 25.5972 159.336 24.8383 160.641 24.3324C161.945 23.7998 163.516 23.5335 165.354 23.5335H171.145V26.4094H165.194C163.65 26.4094 162.465 26.7822 161.639 27.5278C160.814 28.2734 160.401 29.232 160.401 30.4037C160.401 31.5754 160.814 32.5207 161.639 33.2396C162.465 33.9586 163.65 34.3181 165.194 34.3181C166.099 34.3181 166.965 34.1583 167.79 33.8388C168.616 33.4926 169.295 32.9334 169.827 32.1612C170.387 31.3623 170.693 30.2706 170.746 28.8859L171.785 30.4037C171.651 31.9215 171.279 33.1997 170.666 34.2382C170.08 35.2501 169.255 36.0223 168.19 36.5549C167.151 37.0875 165.886 37.3538 164.395 37.3538ZM187.17 37.0342C185.573 37.0342 184.188 36.8079 183.016 36.3552C181.871 35.9025 180.979 35.1303 180.34 34.0385C179.728 32.9201 179.421 31.4156 179.421 29.525V8.99434H183.096V30.0043C183.096 31.1493 183.402 32.0414 184.015 32.6804C184.654 33.2929 185.546 33.5991 186.691 33.5991H190.446V37.0342H187.17ZM175.747 18.341V15.4651H190.446V18.341H175.747ZM194.311 36.7946V15.4651H198.146V36.7946H194.311ZM191.036 18.5007V15.4651H198.146V18.5007H191.036ZM195.39 12.03C194.538 12.03 193.899 11.8037 193.473 11.351C193.073 10.8983 192.873 10.3258 192.873 9.63343C192.873 8.94108 193.073 8.36857 193.473 7.91588C193.899 7.4632 194.538 7.23686 195.39 7.23686C196.242 7.23686 196.868 7.4632 197.267 7.91588C197.693 8.36857 197.906 8.94108 197.906 9.63343C197.906 10.3258 197.693 10.8983 197.267 11.351C196.868 11.8037 196.242 12.03 195.39 12.03ZM212.79 37.5135C210.926 37.5135 209.288 37.194 207.877 36.5549C206.465 35.9158 205.267 35.077 204.282 34.0385C203.323 32.9734 202.591 31.7884 202.085 30.4836C201.606 29.1788 201.366 27.8474 201.366 26.4893V25.7703C201.366 24.4123 201.619 23.0808 202.125 21.776C202.631 20.4446 203.376 19.2596 204.362 18.2211C205.347 17.156 206.545 16.3172 207.957 15.7047C209.368 15.0657 210.979 14.7461 212.79 14.7461C214.6 14.7461 216.211 15.0657 217.623 15.7047C219.034 16.3172 220.232 17.156 221.218 18.2211C222.203 19.2596 222.948 20.4446 223.454 21.776C223.96 23.0808 224.213 24.4123 224.213 25.7703V26.4893C224.213 27.8474 223.96 29.1788 223.454 30.4836C222.975 31.7884 222.243 32.9734 221.258 34.0385C220.299 35.077 219.114 35.9158 217.703 36.5549C216.291 37.194 214.654 37.5135 212.79 37.5135ZM212.79 34.0784C214.387 34.0784 215.745 33.7323 216.864 33.0399C218.009 32.321 218.874 31.3623 219.46 30.164C220.073 28.9658 220.379 27.621 220.379 26.1298C220.379 24.612 220.073 23.2539 219.46 22.0556C218.848 20.8574 217.969 19.912 216.824 19.2197C215.705 18.5274 214.361 18.1812 212.79 18.1812C211.245 18.1812 209.9 18.5274 208.755 19.2197C207.61 19.912 206.732 20.8574 206.119 22.0556C205.507 23.2539 205.2 24.612 205.2 26.1298C205.2 27.621 205.493 28.9658 206.079 30.164C206.692 31.3623 207.557 32.321 208.676 33.0399C209.821 33.7323 211.192 34.0784 212.79 34.0784ZM227.36 36.7946V15.4651H230.396V24.612H229.916C229.916 22.5083 230.196 20.7375 230.755 19.2996C231.341 17.835 232.22 16.7299 233.391 15.9843C234.563 15.2121 236.041 14.826 237.825 14.826H237.985C240.674 14.826 242.658 15.6648 243.936 17.3424C245.241 19.02 245.894 21.4432 245.894 24.612V36.7946H242.059V23.8131C242.059 22.1622 241.593 20.844 240.661 19.8588C239.729 18.8469 238.451 18.341 236.826 18.341C235.149 18.341 233.791 18.8602 232.752 19.8987C231.714 20.9372 231.195 22.3219 231.195 24.0528V36.7946H227.36Z" fill="#328378"/>
<path d="M249.554 36.7946V31.9215H254.188V36.7946H249.554ZM264.961 37.4336C262.165 37.4336 259.995 36.8345 258.45 35.6362C256.932 34.4379 256.147 32.8003 256.094 30.7232H259.688C259.742 31.5487 260.154 32.3343 260.927 33.0799C261.726 33.7988 263.07 34.1583 264.961 34.1583C266.665 34.1583 267.97 33.8255 268.875 33.1598C269.781 32.4674 270.233 31.6286 270.233 30.6434C270.233 29.7646 269.901 29.0856 269.235 28.6063C268.569 28.1003 267.491 27.7675 265.999 27.6077L263.683 27.368C261.659 27.155 260.008 26.5559 258.73 25.5706C257.452 24.5587 256.813 23.1474 256.813 21.3367C256.813 19.9786 257.159 18.8203 257.851 17.8616C258.543 16.8764 259.502 16.1308 260.727 15.6249C261.952 15.0923 263.363 14.826 264.961 14.826C267.357 14.826 269.301 15.3586 270.793 16.4237C272.284 17.4888 273.056 19.0732 273.109 21.1769H269.514C269.488 20.3248 269.088 19.6058 268.316 19.02C267.571 18.4075 266.452 18.1013 264.961 18.1013C263.47 18.1013 262.338 18.4075 261.566 19.02C260.794 19.6324 260.407 20.4047 260.407 21.3367C260.407 22.1355 260.674 22.7746 261.206 23.2539C261.765 23.7332 262.671 24.0395 263.922 24.1726L266.239 24.4123C268.529 24.6519 270.367 25.291 271.751 26.3295C273.136 27.3414 273.828 28.7794 273.828 30.6434C273.828 31.9748 273.442 33.1598 272.67 34.1983C271.924 35.2102 270.886 36.009 269.554 36.5948C268.223 37.154 266.692 37.4336 264.961 37.4336ZM276.59 44.7831V15.4651H279.625V24.6919L278.906 24.612C279.039 22.3219 279.519 20.4579 280.344 19.02C281.196 17.5554 282.301 16.477 283.659 15.7846C285.018 15.0923 286.495 14.7461 288.093 14.7461C289.638 14.7461 291.036 15.039 292.287 15.6249C293.565 16.2107 294.657 17.0095 295.562 18.0214C296.468 19.0333 297.16 20.205 297.639 21.5364C298.119 22.8678 298.358 24.2791 298.358 25.7703V26.4893C298.358 27.9805 298.105 29.3918 297.6 30.7232C297.094 32.0547 296.375 33.2263 295.443 34.2382C294.537 35.2501 293.445 36.049 292.167 36.6348C290.916 37.2206 289.531 37.5135 288.013 37.5135C286.495 37.5135 285.044 37.1807 283.659 36.515C282.275 35.8492 281.13 34.7708 280.224 33.2796C279.319 31.7884 278.8 29.8312 278.667 27.408L280.424 30.6034V44.7831H276.59ZM287.414 34.1583C288.852 34.1583 290.104 33.8255 291.169 33.1598C292.234 32.4674 293.059 31.5221 293.645 30.3238C294.231 29.0989 294.524 27.7009 294.524 26.1298C294.524 24.5321 294.231 23.1341 293.645 21.9358C293.059 20.7375 292.234 19.8055 291.169 19.1398C290.104 18.4475 288.852 18.1013 287.414 18.1013C286.136 18.1013 284.951 18.3942 283.859 18.9801C282.767 19.5392 281.889 20.3647 281.223 21.4565C280.584 22.5216 280.264 23.8131 280.264 25.331V27.1683C280.264 28.6329 280.597 29.8844 281.263 30.923C281.929 31.9615 282.807 32.7603 283.899 33.3195C284.991 33.8787 286.163 34.1583 287.414 34.1583ZM314.234 36.7946V30.4037H313.595V23.0143C313.595 21.5497 313.209 20.4446 312.436 19.699C311.691 18.9534 310.586 18.5806 309.121 18.5806C308.296 18.5806 307.444 18.5939 306.565 18.6206C305.686 18.6472 304.847 18.6738 304.048 18.7005C303.25 18.7271 302.557 18.767 301.971 18.8203V15.4651C302.557 15.4118 303.17 15.3719 303.809 15.3453C304.474 15.292 305.153 15.2654 305.846 15.2654C306.538 15.2387 307.204 15.2254 307.843 15.2254C310.027 15.2254 311.811 15.4917 313.195 16.0243C314.58 16.5302 315.605 17.369 316.271 18.5407C316.937 19.7123 317.269 21.2967 317.269 23.2939V36.7946H314.234ZM307.244 37.3538C305.646 37.3538 304.261 37.0875 303.09 36.5549C301.945 35.9957 301.053 35.1968 300.414 34.1583C299.801 33.1198 299.495 31.8683 299.495 30.4037C299.495 28.8859 299.828 27.621 300.493 26.6091C301.186 25.5972 302.184 24.8383 303.489 24.3324C304.794 23.7998 306.365 23.5335 308.202 23.5335H313.994V26.4094H308.043C306.498 26.4094 305.313 26.7822 304.488 27.5278C303.662 28.2734 303.25 29.232 303.25 30.4037C303.25 31.5754 303.662 32.5207 304.488 33.2396C305.313 33.9586 306.498 34.3181 308.043 34.3181C308.948 34.3181 309.813 34.1583 310.639 33.8388C311.464 33.4926 312.143 32.9334 312.676 32.1612C313.235 31.3623 313.541 30.2706 313.595 28.8859L314.633 30.4037C314.5 31.9215 314.127 33.1997 313.515 34.2382C312.929 35.2501 312.104 36.0223 311.038 36.5549C310 37.0875 308.735 37.3538 307.244 37.3538ZM330.658 37.5135C328.821 37.5135 327.223 37.194 325.865 36.5549C324.534 35.9158 323.428 35.0637 322.55 33.9986C321.671 32.9068 321.005 31.7085 320.553 30.4037C320.127 29.0989 319.914 27.7941 319.914 26.4893V25.7703C319.914 24.4123 320.127 23.0808 320.553 21.776C321.005 20.4712 321.671 19.2996 322.55 18.2611C323.455 17.1959 324.574 16.3438 325.905 15.7047C327.236 15.0657 328.794 14.7461 330.578 14.7461C332.362 14.7461 333.96 15.079 335.371 15.7447C336.809 16.4104 337.954 17.3557 338.806 18.5806C339.685 19.7789 340.178 21.2035 340.284 22.8545H336.61C336.423 21.5231 335.811 20.418 334.772 19.5392C333.734 18.6339 332.336 18.1812 330.578 18.1812C329.06 18.1812 327.796 18.5274 326.784 19.2197C325.772 19.912 325.013 20.8574 324.507 22.0556C324.001 23.2539 323.748 24.612 323.748 26.1298C323.748 27.5944 324.001 28.9391 324.507 30.164C325.013 31.3623 325.772 32.321 326.784 33.0399C327.822 33.7323 329.114 34.0784 330.658 34.0784C331.856 34.0784 332.895 33.8654 333.774 33.4394C334.652 33.0133 335.358 32.4408 335.891 31.7218C336.423 31.0028 336.743 30.1907 336.849 29.2853H340.524C340.444 30.9629 339.952 32.4142 339.046 33.6391C338.167 34.864 336.996 35.8226 335.531 36.515C334.093 37.1807 332.469 37.5135 330.658 37.5135ZM352.005 37.5135C350.141 37.5135 348.53 37.194 347.172 36.5549C345.814 35.9158 344.709 35.077 343.857 34.0385C343.005 32.9734 342.366 31.7884 341.94 30.4836C341.54 29.1788 341.341 27.8474 341.341 26.4893V25.7703C341.341 24.3856 341.54 23.0409 341.94 21.7361C342.366 20.4313 343.005 19.2596 343.857 18.2211C344.709 17.156 345.788 16.3172 347.092 15.7047C348.424 15.0657 349.982 14.7461 351.766 14.7461C354.082 14.7461 355.986 15.2521 357.478 16.2639C358.995 17.2492 360.114 18.5274 360.833 20.0984C361.578 21.6695 361.951 23.3471 361.951 25.1312V26.8488H343.018V23.9729H359.155L358.276 25.5307C358.276 24.0128 358.037 22.708 357.557 21.6163C357.078 20.4979 356.359 19.6324 355.401 19.02C354.442 18.4075 353.23 18.1013 351.766 18.1013C350.248 18.1013 348.983 18.4475 347.971 19.1398C346.986 19.8322 346.24 20.7775 345.734 21.9758C345.255 23.174 345.015 24.5587 345.015 26.1298C345.015 27.6476 345.255 29.019 345.734 30.2439C346.24 31.4422 347.013 32.4008 348.051 33.1198C349.09 33.8122 350.408 34.1583 352.005 34.1583C353.683 34.1583 355.041 33.7855 356.08 33.0399C357.145 32.2943 357.784 31.4289 357.997 30.4436H361.592C361.299 31.9082 360.713 33.1731 359.834 34.2382C358.955 35.3034 357.85 36.1155 356.519 36.6747C355.188 37.2339 353.683 37.5135 352.005 37.5135Z" fill="#1F2937"/>
<path d="M39.7816 7.55059C36.3258 6.71643 32.6316 7.25268 29.5333 9.2189C28.6396 9.75515 27.8054 10.4106 27.0905 11.1851C26.2563 12.0193 25.5413 12.9726 24.9455 13.9259C24.2901 11.8405 23.2772 9.81473 21.9068 8.02725C21.4301 7.37184 20.8939 6.77602 20.298 6.18019C15.4123 1.29442 8.67942 -0.373898 2.48283 1.11567C2.48283 1.11567 2.30408 1.59233 2.30408 1.71149V1.77108C1.887 3.32022 1.70825 4.98854 1.70825 6.71643C1.70825 17.7392 10.6456 26.6766 21.6684 26.6766C27.9246 26.6766 33.4658 23.8166 37.1599 19.2884C39.8411 15.8922 40.7349 11.5426 39.7816 7.55059Z" fill="#48AD9C"/>
<path fill-rule="evenodd" clip-rule="evenodd" d="M3.41665 34.8358V27.2198H0V38.2524H42.5129V27.2198H39.0962V34.8358H3.41665Z" fill="#1F2937"/>
</svg>
