<svg width="261" height="62" viewBox="0 0 261 62" fill="none" xmlns="http://www.w3.org/2000/svg">
<path d="M86.3961 27.3363V7.66937H79.537V3.60596H97.8712V7.66937H91.0121V27.3363H86.3961Z" fill="#1F2937"/>
<path d="M106.582 27.9539C105.065 27.9539 103.732 27.6939 102.584 27.1738C101.457 26.6536 100.514 25.9602 99.7556 25.0933C99.0187 24.2048 98.4553 23.2187 98.0652 22.1351C97.6968 21.0516 97.5126 19.9463 97.5126 18.8194V18.2017C97.5126 17.0315 97.6968 15.9046 98.0652 14.821C98.4553 13.7374 99.0187 12.7622 99.7556 11.8953C100.514 11.0285 101.446 10.3458 102.551 9.84736C103.656 9.32724 104.935 9.06719 106.387 9.06719C108.294 9.06719 109.887 9.48978 111.166 10.335C112.444 11.1585 113.409 12.2529 114.059 13.6182C114.731 14.9618 115.067 16.4138 115.067 17.9742V19.5996H101.804C101.955 20.9865 102.41 22.1026 103.169 22.9478C103.949 23.793 105.087 24.2156 106.582 24.2156C107.666 24.2156 108.554 23.9989 109.248 23.5655C109.963 23.1103 110.418 22.5577 110.613 21.9076H114.774C114.384 23.728 113.463 25.1908 112.011 26.2961C110.559 27.4013 108.749 27.9539 106.582 27.9539ZM106.387 12.8055C105.108 12.8055 104.09 13.1631 103.331 13.8783C102.573 14.5934 102.085 15.5795 101.869 16.8364H110.743C110.57 15.5795 110.115 14.5934 109.378 13.8783C108.663 13.1631 107.666 12.8055 106.387 12.8055Z" fill="#1F2937"/>
<path d="M126.35 27.9539C124.812 27.9539 123.479 27.6939 122.352 27.1738C121.225 26.6536 120.293 25.9602 119.556 25.0933C118.82 24.2264 118.267 23.2512 117.898 22.1676C117.53 21.0841 117.346 19.9788 117.346 18.8519V18.2343C117.346 17.064 117.53 15.9371 117.898 14.8535C118.289 13.7482 118.852 12.7622 119.589 11.8953C120.347 11.0285 121.279 10.3458 122.384 9.84736C123.511 9.32724 124.823 9.06719 126.318 9.06719C127.857 9.06719 129.222 9.37059 130.414 9.97739C131.627 10.5625 132.592 11.386 133.307 12.4479C134.044 13.5099 134.466 14.7451 134.575 16.1538H130.186C130.056 15.2436 129.666 14.4851 129.016 13.8783C128.366 13.2715 127.466 12.9681 126.318 12.9681C124.801 12.9681 123.674 13.4882 122.937 14.5284C122.222 15.5687 121.864 16.9015 121.864 18.5268C121.864 20.1088 122.211 21.4308 122.905 22.4927C123.62 23.5329 124.768 24.0531 126.35 24.0531C127.521 24.0531 128.442 23.7497 129.113 23.1429C129.807 22.5361 130.219 21.745 130.349 20.7698H134.737C134.651 22.2001 134.228 23.4571 133.469 24.5407C132.733 25.6242 131.747 26.4694 130.511 27.0762C129.276 27.6614 127.889 27.9539 126.35 27.9539Z" fill="#1F2937"/>
<path d="M138.032 27.3363V3.60596H142.55V12.643C143.006 11.5161 143.677 10.6492 144.566 10.0424C145.454 9.4356 146.571 9.1322 147.914 9.1322H148.109C150.125 9.1322 151.652 9.83653 152.693 11.2452C153.733 12.6322 154.253 14.6368 154.253 17.259V27.3363H149.735V16.8364C149.735 15.7095 149.409 14.821 148.759 14.1708C148.131 13.5207 147.297 13.1956 146.256 13.1956C145.129 13.1956 144.23 13.564 143.558 14.3009C142.886 15.016 142.55 15.9587 142.55 17.129V27.3363H138.032Z" fill="#1F2937"/>
<path d="M92.4099 58.5491C90.2428 58.5491 88.3899 58.1698 86.8512 57.4113C85.3342 56.6528 84.0881 55.6667 83.1128 54.4531C82.1593 53.2395 81.455 51.9284 80.9999 50.5198C80.5448 49.0894 80.3172 47.7025 80.3172 46.3588V45.6437C80.3172 44.1917 80.5448 42.7505 80.9999 41.3202C81.4766 39.8682 82.2026 38.5571 83.1779 37.3868C84.1531 36.2165 85.3884 35.2847 86.8837 34.5912C88.379 33.876 90.1669 33.5184 92.2474 33.5184C94.3712 33.5184 96.235 33.9085 97.8387 34.6887C99.4423 35.4689 100.721 36.5524 101.675 37.9394C102.628 39.3264 103.202 40.9518 103.397 42.8155H98.7489C98.4888 41.1902 97.7628 39.9549 96.5709 39.1097C95.4006 38.2428 93.9594 37.8094 92.2474 37.8094C90.6654 37.8094 89.3326 38.167 88.249 38.8821C87.1871 39.5756 86.3744 40.54 85.8109 41.7753C85.2692 43.0106 84.9983 44.4301 84.9983 46.0337C84.9983 47.5941 85.28 48.9919 85.8435 50.2272C86.4069 51.4625 87.2413 52.4485 88.3465 53.1854C89.4518 53.9005 90.8062 54.2581 92.4099 54.2581C94.187 54.2581 95.6823 53.8247 96.8959 52.9578C98.1312 52.0693 98.8789 50.834 99.1389 49.252H103.787C103.571 50.964 102.986 52.5244 102.032 53.933C101.1 55.3417 99.8216 56.4686 98.1962 57.3138C96.5925 58.1373 94.6638 58.5491 92.4099 58.5491Z" fill="#1F2937"/>
<path d="M113.014 58.484C110.977 58.484 109.395 57.8231 108.268 56.5011C107.163 55.1575 106.61 53.1528 106.61 50.4872V40.2474H111.129V50.8773C111.129 51.9826 111.432 52.8494 112.039 53.4779C112.646 54.1064 113.469 54.4206 114.509 54.4206C115.55 54.4206 116.395 54.0847 117.045 53.4129C117.717 52.7411 118.053 51.8309 118.053 50.6823V40.2474H122.571V57.9314H118.995V53.8355C118.237 56.9345 116.308 58.484 113.209 58.484H113.014Z" fill="#1F2937"/>
<path d="M127.664 57.9314V37.5818H125.454V34.2011H132.183V57.9314H127.664Z" fill="#1F2937"/>
<path d="M144.688 58.159C143.062 58.159 141.719 57.9531 140.657 57.5413C139.595 57.1079 138.804 56.3927 138.284 55.3959C137.785 54.399 137.536 53.0337 137.536 51.2999V43.5957H134.741V40.2799H137.536L137.569 35.3063H141.795L141.762 40.2799H147.223V43.5957H141.762V51.5925C141.762 52.4594 141.99 53.1312 142.445 53.6079C142.922 54.0631 143.593 54.2906 144.46 54.2906H147.223V58.159H144.688Z" fill="#1F2937"/>
<path d="M153.194 38.167C152.305 38.167 151.644 37.9394 151.211 37.4843C150.799 37.0075 150.593 36.4116 150.593 35.6964C150.593 34.9813 150.799 34.3961 151.211 33.941C151.644 33.4859 152.305 33.2584 153.194 33.2584C154.061 33.2584 154.7 33.4859 155.112 33.941C155.545 34.3961 155.762 34.9813 155.762 35.6964C155.762 36.4116 155.545 37.0075 155.112 37.4843C154.7 37.9394 154.061 38.167 153.194 38.167ZM151.536 57.9314V43.6607H149.065V40.2799H156.054V57.9314H151.536Z" fill="#1F2937"/>
<path d="M164.48 57.9314L158.954 40.2799H163.602L167.763 54.2256H168.544L172.152 40.2799H176.508L171.729 57.9314H164.48Z" fill="#1F2937"/>
<path d="M184.379 58.3865C182.429 58.3865 180.869 57.8881 179.698 56.8912C178.55 55.8943 177.976 54.4965 177.976 52.6977C177.976 50.769 178.669 49.3495 180.056 48.4393C181.465 47.5074 183.35 47.0415 185.712 47.0415H189.321V46.8789C189.321 44.8635 188.302 43.8558 186.265 43.8558C185.723 43.8558 185.073 43.8666 184.314 43.8883C183.556 43.9099 182.787 43.9424 182.006 43.9858C181.248 44.0075 180.565 44.04 179.958 44.0833V40.2474C180.695 40.1824 181.573 40.1282 182.592 40.0849C183.632 40.0416 184.585 40.0199 185.452 40.0199C188.161 40.0199 190.198 40.5725 191.564 41.6778C192.951 42.7613 193.644 44.5276 193.644 46.9765V57.9314H190.068V54.5507C189.266 57.1079 187.37 58.3865 184.379 58.3865ZM185.647 55.1683C186.254 55.1683 186.828 55.0599 187.37 54.8432C187.912 54.6048 188.356 54.2148 188.703 53.673C189.071 53.1095 189.277 52.351 189.321 51.3975V49.7396H185.647C184.607 49.7396 183.805 49.9996 183.242 50.5198C182.7 51.0182 182.429 51.6683 182.429 52.4702C182.429 53.2937 182.7 53.9547 183.242 54.4531C183.805 54.9299 184.607 55.1683 185.647 55.1683Z" fill="#1F2937"/>
<path d="M205.831 58.159C204.205 58.159 202.862 57.9531 201.8 57.5413C200.738 57.1079 199.947 56.3927 199.427 55.3959C198.928 54.399 198.679 53.0337 198.679 51.2999V43.5957H195.884V40.2799H198.679L198.712 35.3063H202.938L202.905 40.2799H208.366V43.5957H202.905V51.5925C202.905 52.4594 203.133 53.1312 203.588 53.6079C204.065 54.0631 204.736 54.2906 205.603 54.2906H208.366V58.159H205.831Z" fill="#1F2937"/>
<path d="M214.337 38.167C213.448 38.167 212.787 37.9394 212.354 37.4843C211.942 37.0075 211.736 36.4116 211.736 35.6964C211.736 34.9813 211.942 34.3961 212.354 33.941C212.787 33.4859 213.448 33.2584 214.337 33.2584C215.204 33.2584 215.843 33.4859 216.255 33.941C216.688 34.3961 216.905 34.9813 216.905 35.6964C216.905 36.4116 216.688 37.0075 216.255 37.4843C215.843 37.9394 215.204 38.167 214.337 38.167ZM212.679 57.9314V43.6607H210.208V40.2799H217.197V57.9314H212.679Z" fill="#1F2937"/>
<path d="M230.564 58.5491C228.484 58.5491 226.728 58.1265 225.298 57.2813C223.868 56.4144 222.773 55.2875 222.015 53.9005C221.278 52.5135 220.91 51.0399 220.91 49.4795V48.7969C220.91 47.1715 221.289 45.6653 222.047 44.2784C222.828 42.8914 223.933 41.7753 225.363 40.9301C226.815 40.0849 228.549 39.6623 230.564 39.6623C232.558 39.6623 234.27 40.0849 235.7 40.9301C237.152 41.7753 238.258 42.8914 239.016 44.2784C239.796 45.6653 240.186 47.1715 240.186 48.7969V49.4795C240.186 51.0399 239.807 52.5135 239.049 53.9005C238.312 55.2875 237.228 56.4144 235.798 57.2813C234.368 58.1265 232.623 58.5491 230.564 58.5491ZM230.564 54.6807C232.211 54.6807 233.468 54.1606 234.335 53.1203C235.224 52.0584 235.668 50.7256 235.668 49.1219C235.668 47.5182 235.213 46.1854 234.303 45.1235C233.392 44.0616 232.146 43.5307 230.564 43.5307C228.961 43.5307 227.704 44.0616 226.793 45.1235C225.883 46.1854 225.428 47.5182 225.428 49.1219C225.428 50.7256 225.862 52.0584 226.728 53.1203C227.617 54.1606 228.896 54.6807 230.564 54.6807Z" fill="#1F2937"/>
<path d="M243.818 57.9314V40.2799H247.394V44.6359C248.152 41.3635 250.168 39.7273 253.44 39.7273H253.635C255.737 39.7273 257.33 40.41 258.414 41.7753C259.497 43.1406 260.039 45.156 260.039 47.8216V57.9314H255.52V47.4316C255.52 46.348 255.206 45.4703 254.578 44.7985C253.949 44.1266 253.104 43.7907 252.042 43.7907C250.937 43.7907 250.038 44.1375 249.344 44.831C248.672 45.5245 248.336 46.4347 248.336 47.5616V57.9314H243.818Z" fill="#1F2937"/>
<path fill-rule="evenodd" clip-rule="evenodd" d="M59.2779 18.3849L59.2779 18.3849L59.2779 18.385C58.3217 21.1186 57.3655 23.8522 57.3655 26.6435V35.6774C57.3655 38.4688 58.3218 41.2025 59.278 43.9361C60.2342 46.6698 61.1904 49.4035 61.1904 52.1949C61.1904 57.4753 56.9098 61.7559 51.6294 61.7559C48.8382 61.7559 46.1046 60.7997 43.3711 59.8436C40.6376 58.8875 37.904 57.9314 35.1128 57.9314H26.0775C23.2863 57.9314 20.5528 58.8875 17.8192 59.8436C15.0857 60.7997 12.3522 61.7558 9.56094 61.7558C4.28056 61.7558 -3.05176e-05 57.4752 -3.05176e-05 52.1948C-3.05176e-05 49.4038 0.955956 46.6704 1.91194 43.937C2.86793 41.2037 3.82391 38.4703 3.82392 35.6792L3.82392 26.6419C3.82392 23.8509 2.86796 21.1175 1.91201 18.3842C0.956062 15.6509 0.000110245 12.9176 0.000110489 10.1265C0.000110951 4.84617 4.28071 0.565571 9.56109 0.565571C12.3523 0.565571 15.0858 1.52166 17.8193 2.47776C20.5528 3.43385 23.2863 4.38994 26.0776 4.38994L35.1125 4.38994C37.9037 4.38994 40.6373 3.43381 43.3709 2.47769C46.1044 1.52156 48.838 0.56543 51.6292 0.56543C56.9096 0.56543 61.1902 4.84602 61.1902 10.1264C61.1902 12.9177 60.2341 15.6513 59.2779 18.3849ZM55.4541 10.1264C55.4541 12.2386 53.7419 13.9508 51.6297 13.9508C49.5176 13.9508 47.8053 12.2386 47.8053 10.1264C47.8053 8.01426 49.5176 6.30202 51.6297 6.30202C53.7419 6.30202 55.4541 8.01426 55.4541 10.1264ZM51.6297 56.0191C53.7419 56.0191 55.4541 54.3069 55.4541 52.1947C55.4541 50.0826 53.7419 48.3703 51.6297 48.3703C49.5176 48.3703 47.8053 50.0826 47.8053 52.1947C47.8053 54.3069 49.5176 56.0191 51.6297 56.0191ZM13.3855 10.1264C13.3855 12.2386 11.6733 13.9508 9.56112 13.9508C7.44897 13.9508 5.73673 12.2386 5.73673 10.1264C5.73673 8.01428 7.44897 6.30204 9.56112 6.30204C11.6733 6.30204 13.3855 8.01428 13.3855 10.1264ZM9.56127 56.0191C11.6734 56.0191 13.3857 54.3069 13.3857 52.1947C13.3857 50.0826 11.6734 48.3703 9.56127 48.3703C7.44912 48.3703 5.73688 50.0826 5.73688 52.1947C5.73688 54.3069 7.44912 56.0191 9.56127 56.0191ZM37.543 51.0202C45.7458 48.1507 51.6294 40.3427 51.6294 31.1605C51.6294 19.5437 42.2121 10.1264 30.5952 10.1264C18.9784 10.1264 9.56108 19.5437 9.56108 31.1605C9.56108 42.6296 18.7403 51.9547 30.153 52.1901C30.3955 50.7706 30.4436 49.7166 30.4064 48.3741C30.3522 46.4174 28.9311 43.3116 28.0172 41.6136C25.8684 37.6228 25.5447 34.3907 26.0752 31.5392L25.7719 31.5781C21.0284 32.1853 16.692 28.8309 16.0863 24.0858L15.769 21.5995L18.2544 21.2813C22.4248 20.7474 26.2806 23.2758 27.563 27.1192C27.8185 26.5658 28.0891 26.0206 28.3649 25.4797C29.4686 23.3156 32.1532 20.1541 33.7263 18.3119C33.8222 18.1996 33.9943 18.1983 34.0443 18.3372C34.1778 18.708 34.1101 19.2965 33.9143 20.0041C33.5514 21.316 33.0993 22.6339 32.6467 23.9529L32.6467 23.953C31.1808 28.2257 29.711 32.51 31.2563 36.6398C31.3979 37.0178 31.5603 37.4067 31.7382 37.803C33.0645 34.147 36.752 31.7243 40.7944 32.155L43.2867 32.4205L43.0222 34.9122C42.5438 39.4183 38.689 42.7471 34.2391 42.6526C34.6069 43.3427 34.9547 44.0123 35.2535 44.6428C36.2633 46.784 37.0752 48.8828 37.543 51.0202Z" fill="#16A34A"/>
</svg>
