<svg width="178" height="158" viewBox="0 0 178 158" fill="none" xmlns="http://www.w3.org/2000/svg">
<style xmlns="http://www.w3.org/2000/svg">
    path#line {
        fill: #1F2937 !important;
    }
    @media (prefers-color-scheme: dark) {
        path#line {
            fill: #fff !important;
        }
    }
</style>
<path d="M166.291 29.4262C151.872 25.9425 136.46 28.182 123.533 36.3935C119.804 38.633 116.324 41.3702 113.341 44.605C109.861 48.0887 106.878 52.07 104.392 56.0513C101.657 47.3422 97.4311 38.8818 91.7135 31.4169C89.7248 28.6797 87.4874 26.1914 85.0015 23.703C64.6171 3.29874 36.5263 -3.66858 10.6728 2.55224C10.6728 2.55224 9.92707 4.54291 9.92707 5.04057V5.28941C8.18693 11.7591 7.44116 18.7264 7.44116 25.9425C7.44116 71.9766 44.7298 109.302 90.7191 109.302C116.821 109.302 139.94 97.3576 155.353 78.4463C166.539 64.2628 170.268 46.098 166.291 29.4262Z" fill="#48AD9C"/>
<path id="line" fill-rule="evenodd" clip-rule="evenodd" d="M14.5688 143.376V111.57H0.313843V157.645H177.686V111.57H163.431V143.376H14.5688Z"/>
</svg>