<svg width="282" height="85" viewBox="0 0 282 85" fill="none" xmlns="http://www.w3.org/2000/svg">
<path d="M224.9 60.0933V61.4933H229V72.6933H230.7V61.5933H234.7V60.0933H224.9ZM216.3 68.1933L212 60.3933C211.9 60.2933 211.8 60.1933 211.8 60.1933C211.7 60.1933 211.6 60.1933 211.5 60.1933H210.3V72.7933H211.8V63.4933C211.8 63.3933 211.8 63.1933 211.8 63.0933C211.8 62.9933 211.8 62.7933 211.8 62.6933L216.2 70.5933C216.3 70.8933 216.5 70.9933 216.8 70.9933H217C217.3 70.9933 217.5 70.8933 217.6 70.5933L221.9 62.6933C221.9 62.7933 221.9 62.9933 221.9 63.0933C221.9 63.1933 221.9 63.3933 221.9 63.4933V72.7933H223.4V60.0933H222.2C222 60.0933 221.9 60.0933 221.9 60.0933C221.8 60.0933 221.7 60.1933 221.7 60.2933L217.5 68.0933C217.4 68.2933 217.3 68.3933 217.3 68.5933C217.2 68.6933 217.2 68.8933 217.1 69.0933C217 68.8933 217 68.7933 216.9 68.5933C216.5 68.4933 216.4 68.2933 216.3 68.1933ZM202.4 62.9933C202.5 62.7933 202.5 62.6933 202.6 62.4933C202.7 62.2933 202.7 62.0933 202.8 61.7933C202.9 62.2933 203 62.6933 203.2 62.9933L205.2 68.0933H200.5L202.4 62.9933ZM203.6 60.0933H201.9L196.9 72.6933H198.2C198.3 72.6933 198.5 72.6933 198.6 72.5933C198.7 72.4933 198.8 72.3933 198.8 72.2933L200 69.2933H205.6L206.8 72.2933C206.8 72.3933 206.9 72.4933 207 72.5933C207.1 72.6933 207.2 72.6933 207.4 72.6933H208.7L203.6 60.0933ZM186 60.0933H185.1V72.6933H186.6V63.6933C186.6 63.5933 186.6 63.4933 186.6 63.2933C186.6 63.1933 186.6 62.9933 186.6 62.8933L193.8 72.3933C193.9 72.4933 194 72.5933 194.1 72.5933C194.2 72.5933 194.3 72.6933 194.4 72.6933H195.3V60.0933H193.8V69.0933C193.8 69.1933 193.8 69.3933 193.8 69.4933C193.8 69.5933 193.8 69.7933 193.8 69.8933L186.6 60.3933C186.5 60.2933 186.4 60.1933 186.4 60.1933C186.3 60.1933 186.2 60.0933 186 60.0933ZM175 60.0933V72.6933H182.7V71.2933H176.7V67.0933H181.6V65.7933H176.7V61.5933H182.7V60.0933H175ZM165.6 61.4933H167.4C168.4 61.4933 169.1 61.6933 169.6 62.0933C170.1 62.4933 170.3 62.9933 170.3 63.7933C170.3 64.1933 170.2 64.4933 170.1 64.7933C170 65.0933 169.8 65.3933 169.5 65.5933C169.2 65.7933 168.9 65.9933 168.6 66.0933C168.2 66.1933 167.8 66.2933 167.3 66.2933H165.5V61.4933H165.6ZM166.9 67.4933C167.1 67.4933 167.3 67.4933 167.4 67.5933C167.5 67.6933 167.6 67.7933 167.7 67.8933L170.9 72.3933C171 72.5933 171.3 72.7933 171.6 72.7933H173.1L169.5 67.7933C169.3 67.5933 169.2 67.3933 168.9 67.2933C169.4 67.1933 169.8 66.9933 170.2 66.7933C170.6 66.5933 170.9 66.2933 171.2 65.9933C171.5 65.6933 171.7 65.2933 171.8 64.9933C171.9 64.5933 172 64.1933 172 63.6933C172 63.1933 171.9 62.6933 171.7 62.2933C171.5 61.8933 171.2 61.4933 170.9 61.1933C170.5 60.8933 170.1 60.6933 169.5 60.4933C168.9 60.2933 168.2 60.2933 167.5 60.2933H164V72.8933H165.7V67.5933H166.9V67.4933ZM160.7 60.0933H159V65.6933H152.3V60.0933H150.6V72.6933H152.3V66.9933H159V72.6933H160.7V60.0933ZM140.5 60.0933V72.6933H148.2V71.2933H142.2V67.0933H147.1V65.7933H142.2V61.5933H148.2V60.0933H140.5ZM132.7 68.4933C132.5 69.0933 132.2 69.5933 131.8 69.9933C131.4 70.3933 131 70.6933 130.4 70.9933C129.9 71.1933 129.2 71.2933 128.6 71.2933H125.6V61.3933H128.6C129.3 61.3933 129.9 61.4933 130.4 61.6933C130.9 61.8933 131.4 62.1933 131.8 62.6933C132.2 63.0933 132.5 63.5933 132.7 64.1933C132.9 64.7933 133 65.4933 133 66.2933C133 67.0933 132.9 67.8933 132.7 68.4933ZM134.3 63.8933C134 63.0933 133.6 62.4933 133 61.8933C132.5 61.2933 131.8 60.8933 131.1 60.5933C130.3 60.2933 129.5 60.0933 128.6 60.0933H124V72.6933H128.7C129.6 72.6933 130.5 72.4933 131.2 72.1933C132 71.8933 132.6 71.4933 133.1 70.8933C133.6 70.2933 134.1 69.6933 134.4 68.8933C134.7 68.0933 134.8 67.2933 134.8 66.2933C134.8 65.2933 134.6 64.6933 134.3 63.8933ZM111.6 60.0933H110.7V72.6933H112.2V63.6933C112.2 63.5933 112.2 63.4933 112.2 63.2933C112.2 63.1933 112.2 62.9933 112.2 62.8933L119.4 72.3933C119.5 72.4933 119.6 72.5933 119.7 72.5933C119.8 72.5933 119.9 72.6933 120 72.6933H120.9V60.0933H119.4V69.0933C119.4 69.1933 119.4 69.3933 119.4 69.4933C119.4 69.5933 119.4 69.7933 119.4 69.8933L112.2 60.3933C112.1 60.2933 112 60.1933 112 60.1933C111.9 60.1933 111.8 60.0933 111.6 60.0933ZM101.5 71.0933C101.1 70.8933 100.7 70.6933 100.5 70.3933C100.2 70.0933 100 69.6933 99.9 69.2933C99.8 68.8933 99.7 68.3933 99.7 67.7933V60.0933H98V67.7933C98 68.4933 98.1 69.1933 98.3 69.7933C98.5 70.3933 98.9 70.9933 99.3 71.3933C99.7 71.8933 100.3 72.1933 100.9 72.4933C101.5 72.7933 102.2 72.8933 103 72.8933C103.8 72.8933 104.5 72.7933 105.1 72.4933C105.7 72.1933 106.2 71.8933 106.7 71.3933C107.1 70.8933 107.5 70.3933 107.7 69.7933C107.9 69.1933 108 68.4933 108 67.7933V60.0933H106.3V67.7933C106.3 68.2933 106.2 68.7933 106.1 69.2933C106 69.6933 105.7 70.0933 105.5 70.3933C105.2 70.6933 104.9 70.9933 104.5 71.0933C104.1 71.1933 103.6 71.3933 103.1 71.3933C102.6 71.3933 101.9 71.2933 101.5 71.0933Z" fill="black"/>
<path d="M247.2 36.8933V38.2933H251.3V49.4933H253V38.2933H257V36.8933H247.2ZM236 36.8933H235.1V49.4933H236.6V40.4933C236.6 40.3933 236.6 40.2933 236.6 40.0933C236.6 39.9933 236.6 39.7933 236.6 39.6933L243.8 49.1933C243.9 49.2933 244 49.3933 244.1 49.3933C244.2 49.3933 244.3 49.4933 244.4 49.4933H245.3V36.8933H243.8V45.7933C243.8 45.8933 243.8 46.0933 243.8 46.1933C243.8 46.2933 243.8 46.4933 243.8 46.5933L236.6 37.0933C236.5 36.9933 236.4 36.8933 236.4 36.8933C236.3 36.8933 236.2 36.8933 236 36.8933ZM224.8 36.8933V49.4933H232.5V48.0933H226.5V43.7933H231.4V42.4933H226.5V38.2933H232.5V36.8933H224.8ZM214.8 44.9933L210.5 37.1933C210.4 37.0933 210.3 36.9933 210.3 36.9933C210.2 36.9933 210.1 36.9933 210 36.9933H208.8V49.5933H210.3V40.2933C210.3 40.1933 210.3 39.9933 210.3 39.8933C210.3 39.7933 210.3 39.5933 210.3 39.4933L214.7 47.3933C214.8 47.6933 215 47.7933 215.3 47.7933H215.5C215.8 47.7933 216 47.6933 216.1 47.3933L220.4 39.4933C220.4 39.5933 220.4 39.7933 220.4 39.8933C220.4 39.9933 220.4 40.1933 220.4 40.2933V49.5933H221.9V36.8933H220.7C220.5 36.8933 220.4 36.8933 220.4 36.8933C220.3 36.8933 220.2 36.9933 220.2 37.0933L216 44.8933C215.9 45.0933 215.8 45.1933 215.8 45.3933C215.7 45.4933 215.7 45.6933 215.6 45.8933C215.5 45.6933 215.5 45.5933 215.4 45.3933C214.9 45.2933 214.9 45.0933 214.8 44.9933ZM198.3 36.8933V49.4933H206V48.0933H200V43.7933H204.9V42.4933H200V38.2933H206V36.8933H198.3ZM189.1 47.8933C188.5 47.6933 188.1 47.2933 187.7 46.8933C187.3 46.4933 187 45.8933 186.8 45.2933C186.6 44.6933 186.5 43.9933 186.5 43.1933C186.5 42.3933 186.6 41.6933 186.8 41.0933C187 40.4933 187.3 39.9933 187.7 39.4933C188.1 39.0933 188.6 38.6933 189.2 38.4933C189.8 38.2933 190.4 38.1933 191.1 38.1933C191.6 38.1933 192 38.1933 192.4 38.2933C192.8 38.3933 193.1 38.4933 193.3 38.5933C193.6 38.6933 193.8 38.7933 194 38.8933C194.2 38.9933 194.3 39.0933 194.5 39.1933C194.6 39.2933 194.7 39.2933 194.8 39.2933C195 39.2933 195.1 39.1933 195.2 39.0933L195.7 38.2933C195.4 38.0933 195.1 37.7933 194.8 37.5933C194.5 37.3933 194.2 37.1933 193.8 37.0933C193.4 36.9933 193 36.8933 192.6 36.7933C192.2 36.6933 191.7 36.6933 191.2 36.6933C190.2 36.6933 189.3 36.8933 188.6 37.1933C187.8 37.4933 187.1 37.8933 186.6 38.4933C186 39.0933 185.6 39.6933 185.3 40.4933C185 41.2933 184.9 42.1933 184.9 43.0933C184.9 44.0933 185.1 44.8933 185.4 45.6933C185.7 46.4933 186.1 47.1933 186.7 47.6933C187.2 48.2933 187.9 48.6933 188.7 48.9933C189.5 49.2933 190.3 49.4933 191.2 49.4933C191.7 49.4933 192.2 49.4933 192.6 49.3933C193 49.2933 193.5 49.2933 193.8 49.0933C194.2 48.9933 194.5 48.7933 194.9 48.6933C195.2 48.4933 195.6 48.2933 195.9 48.0933V43.2933H192.1V44.2933C192.1 44.3933 192.1 44.4933 192.2 44.4933C192.3 44.5933 192.4 44.5933 192.5 44.5933H194.4V47.3933C194.2 47.4933 194 47.5933 193.7 47.6933C193.5 47.7933 193.2 47.8933 193 47.8933C192.8 47.9933 192.5 47.9933 192.2 47.9933C191.9 47.9933 191.6 47.9933 191.3 47.9933C190.3 48.2933 189.6 48.1933 189.1 47.8933ZM177.7 39.6933C177.8 39.4933 177.8 39.3933 177.9 39.1933C178 38.9933 178 38.7933 178.1 38.4933C178.2 38.9933 178.3 39.3933 178.5 39.6933L180.5 44.7933H175.8L177.7 39.6933ZM179 36.8933H177.3L172.3 49.4933H173.6C173.7 49.4933 173.9 49.4933 174 49.3933C174.1 49.2933 174.2 49.1933 174.2 49.0933L175.4 46.0933H181L182.2 49.0933C182.2 49.1933 182.3 49.2933 182.4 49.3933C182.5 49.4933 182.6 49.4933 182.8 49.4933H184.1L179 36.8933ZM164.4 47.8933C163.8 47.6933 163.4 47.2933 163 46.8933C162.6 46.4933 162.3 45.8933 162.1 45.2933C161.9 44.6933 161.8 43.9933 161.8 43.1933C161.8 42.3933 161.9 41.6933 162.1 41.0933C162.3 40.4933 162.6 39.9933 163 39.4933C163.4 39.0933 163.9 38.6933 164.5 38.4933C165.1 38.2933 165.7 38.1933 166.4 38.1933C166.9 38.1933 167.3 38.1933 167.7 38.2933C168.1 38.3933 168.4 38.4933 168.6 38.5933C168.9 38.6933 169.1 38.7933 169.3 38.8933C169.5 38.9933 169.6 39.0933 169.8 39.1933C169.9 39.2933 170 39.2933 170.1 39.2933C170.3 39.2933 170.4 39.1933 170.5 39.0933L171 38.2933C170.7 38.0933 170.4 37.7933 170.1 37.5933C169.8 37.3933 169.5 37.1933 169.1 37.0933C168.7 36.9933 168.3 36.8933 167.9 36.7933C167.5 36.6933 167 36.6933 166.5 36.6933C165.5 36.6933 164.6 36.8933 163.9 37.1933C163.1 37.4933 162.4 37.8933 161.9 38.4933C161.3 39.0933 160.9 39.6933 160.6 40.4933C160.3 41.2933 160.2 42.1933 160.2 43.0933C160.2 44.0933 160.4 44.8933 160.7 45.6933C161 46.4933 161.4 47.1933 162 47.6933C162.5 48.2933 163.2 48.6933 164 48.9933C164.8 49.2933 165.6 49.4933 166.5 49.4933C167 49.4933 167.5 49.4933 167.9 49.3933C168.3 49.2933 168.8 49.2933 169.1 49.0933C169.5 48.9933 169.8 48.7933 170.2 48.6933C170.5 48.4933 170.9 48.2933 171.2 48.0933V43.2933H167.4V44.2933C167.4 44.3933 167.4 44.4933 167.5 44.4933C167.6 44.5933 167.7 44.5933 167.8 44.5933H169.7V47.3933C169.5 47.4933 169.3 47.5933 169 47.6933C168.8 47.7933 168.5 47.8933 168.3 47.8933C168.1 47.8933 167.8 47.9933 167.5 47.9933C167.2 47.9933 166.9 47.9933 166.6 47.9933C165.6 48.2933 165 48.1933 164.4 47.8933ZM148.2 36.8933H147.3V49.4933H148.8V40.4933C148.8 40.3933 148.8 40.2933 148.8 40.0933C148.8 39.9933 148.8 39.7933 148.8 39.6933L156 49.1933C156.1 49.2933 156.2 49.3933 156.3 49.3933C156.4 49.3933 156.5 49.4933 156.6 49.4933H157.5V36.8933H156V45.7933C156 45.8933 156 46.0933 156 46.1933C156 46.2933 156 46.4933 156 46.5933L148.8 37.0933C148.7 36.9933 148.6 36.8933 148.6 36.8933C148.5 36.8933 148.4 36.8933 148.2 36.8933ZM137.1 36.8933V49.4933H144.8V48.0933H138.8V43.7933H143.7V42.4933H138.8V38.2933H144.8V36.8933H137.1ZM123.6 38.2933H125.5C126.5 38.2933 127.3 38.4933 127.8 38.8933C128.3 39.2933 128.6 39.7933 128.6 40.5933C128.6 40.9933 128.5 41.2933 128.4 41.5933C128.3 41.8933 128.1 42.1933 127.8 42.3933C127.5 42.5933 127.2 42.7933 126.8 42.8933C126.4 42.9933 126 43.0933 125.5 43.0933H123.7V38.2933H123.6ZM125 44.2933C125.2 44.2933 125.4 44.2933 125.5 44.3933C125.6 44.4933 125.7 44.5933 125.8 44.6933L129.1 49.1933C129.2 49.3933 129.5 49.5933 129.8 49.5933H131.3L127.5 44.5933C127.3 44.3933 127.1 44.1933 126.9 44.0933C127.4 43.9933 127.8 43.7933 128.2 43.5933C128.6 43.3933 128.9 43.0933 129.2 42.7933C129.5 42.4933 129.7 42.0933 129.8 41.7933C129.9 41.3933 130 40.9933 130 40.4933C130 39.9933 129.9 39.4933 129.7 39.0933C129.5 38.6933 129.2 38.2933 128.8 37.9933C128.4 37.6933 127.9 37.4933 127.3 37.2933C126.7 37.0933 126 37.0933 125.2 37.0933H121.6V49.6933H123.3V44.3933H125V44.2933ZM116.3 34.4933C116.2 34.3933 116.2 34.2933 116.1 34.1933C116 34.0933 115.9 33.9933 115.8 33.9933C115.7 33.8933 115.6 33.8933 115.4 33.8933C115.3 33.8933 115.1 33.8933 115 33.9933C114.9 34.0933 114.8 34.0933 114.7 34.1933C114.6 34.2933 114.5 34.3933 114.5 34.4933C114.4 34.5933 114.4 34.6933 114.4 34.8933C114.4 34.9933 114.4 35.1933 114.5 35.2933C114.6 35.3933 114.6 35.4933 114.7 35.5933C114.8 35.6933 114.9 35.7933 115 35.7933C115.1 35.8933 115.2 35.8933 115.4 35.8933C115.5 35.8933 115.7 35.8933 115.8 35.7933C115.9 35.6933 116 35.6933 116.1 35.5933C116.2 35.4933 116.3 35.3933 116.3 35.2933C116.4 35.1933 116.4 35.0933 116.4 34.8933C116.3 34.6933 116.3 34.5933 116.3 34.4933ZM112.4 34.4933C112.3 34.3933 112.3 34.2933 112.2 34.1933C112.1 34.0933 112 33.9933 111.9 33.9933C111.8 33.8933 111.6 33.8933 111.5 33.8933C111.4 33.8933 111.3 33.8933 111.1 33.9933C111 34.0933 110.9 34.0933 110.8 34.1933C110.7 34.2933 110.6 34.3933 110.6 34.4933C110.5 34.5933 110.5 34.6933 110.5 34.8933C110.5 34.9933 110.5 35.1933 110.6 35.2933C110.7 35.3933 110.7 35.4933 110.8 35.5933C110.9 35.6933 111 35.7933 111.1 35.7933C111.2 35.8933 111.3 35.8933 111.5 35.8933C111.6 35.8933 111.8 35.8933 111.9 35.7933C112 35.6933 112.1 35.6933 112.2 35.5933C112.3 35.4933 112.4 35.3933 112.4 35.2933C112.5 35.1933 112.5 35.0933 112.5 34.8933C112.5 34.6933 112.5 34.5933 112.4 34.4933ZM112 47.8933C111.6 47.6933 111.2 47.4933 110.9 47.1933C110.6 46.8933 110.4 46.4933 110.2 46.0933C110 45.6933 110 45.1933 110 44.5933V36.8933H108.3V44.5933C108.3 45.2933 108.4 45.9933 108.7 46.5933C108.9 47.1933 109.3 47.7933 109.7 48.1933C110.1 48.6933 110.7 48.9933 111.3 49.2933C111.9 49.5933 112.6 49.6933 113.4 49.6933C114.2 49.6933 114.9 49.5933 115.5 49.2933C116.1 48.9933 116.7 48.6933 117.1 48.1933C117.5 47.6933 117.9 47.1933 118.1 46.5933C118.3 45.9933 118.5 45.2933 118.5 44.5933V36.8933H116.8V44.5933C116.8 45.0933 116.7 45.5933 116.6 46.0933C116.4 46.4933 116.2 46.8933 115.9 47.1933C115.6 47.4933 115.3 47.7933 114.8 47.8933C114.4 48.0933 113.9 48.1933 113.4 48.1933C112.9 48.1933 112.4 48.0933 112 47.8933ZM98.1 36.8933V49.4933H99.9V44.0933H105.2V42.6933H99.9V38.2933H106.1V36.8933H98.1Z" fill="black"/>
<path d="M272.1 25.2933C271.4 24.9933 270.9 24.6933 270.4 24.1933C269.9 23.6933 269.6 23.0933 269.3 22.3933C269 21.6933 268.9 20.8933 268.9 19.9933C268.9 19.0933 269 18.3933 269.3 17.6933C269.6 16.9933 269.9 16.3933 270.4 15.8933C270.9 15.3933 271.4 14.9933 272.1 14.7933C272.8 14.4933 273.5 14.3933 274.3 14.3933C274.9 14.3933 275.5 14.4933 275.9 14.5933C276.3 14.6933 276.7 14.7933 277 14.9933C277.3 15.0933 277.5 15.2933 277.7 15.3933C277.9 15.4933 278 15.5933 278.1 15.5933C278.1 15.5933 278.2 15.5933 278.3 15.5933C278.4 15.5933 278.5 15.5933 278.5 15.4933L278.7 15.0933C278.4 14.8933 278.1 14.5933 277.8 14.4933C277.5 14.2933 277.2 14.1933 276.8 13.9933C276.4 13.8933 276.1 13.7933 275.7 13.6933C275.3 13.5933 274.8 13.5933 274.4 13.5933C273.4 13.5933 272.5 13.7933 271.8 14.0933C271 14.3933 270.3 14.7933 269.8 15.3933C269.2 15.9933 268.8 16.5933 268.5 17.3933C268.2 18.1933 268.1 19.0933 268.1 19.9933C268.1 20.9933 268.2 21.7933 268.5 22.5933C268.8 23.3933 269.2 24.0933 269.8 24.5933C270.3 25.1933 271 25.5933 271.7 25.8933C272.5 26.1933 273.3 26.3933 274.2 26.3933C274.7 26.3933 275.2 26.3933 275.7 26.2933C276.1 26.1933 276.6 26.1933 277 25.9933C277.4 25.8933 277.8 25.6933 278.1 25.5933C278.4 25.3933 278.8 25.1933 279.1 24.9933V20.5933H275.6V21.0933C275.6 21.1933 275.6 21.1933 275.7 21.1933C275.7 21.1933 275.8 21.2933 275.9 21.2933H278.3V24.6933C278 24.8933 277.7 24.9933 277.5 25.0933C277.2 25.1933 276.9 25.2933 276.6 25.3933C276.3 25.4933 276 25.5933 275.6 25.5933C275.2 25.5933 274.8 25.6933 274.4 25.6933C273.5 25.6933 272.7 25.5933 272.1 25.2933ZM255.7 13.7933H255.3V26.2933H256.1V15.7933C256.1 15.5933 256.1 15.4933 256.1 15.2933L264.4 26.0933C264.5 26.1933 264.6 26.2933 264.7 26.2933H265.1V13.7933H264.3V24.1933C264.3 24.3933 264.3 24.4933 264.3 24.6933L256 13.9933C255.9 13.8933 255.9 13.8933 255.8 13.8933C255.8 13.7933 255.7 13.7933 255.7 13.7933ZM245.1 25.2933C244.6 25.0933 244.2 24.7933 243.9 24.3933C243.6 23.9933 243.3 23.5933 243.1 23.0933C242.9 22.5933 242.8 22.0933 242.8 21.4933V13.7933H241.9V21.4933C241.9 22.1933 242 22.7933 242.2 23.3933C242.4 23.9933 242.7 24.4933 243.2 24.9933C243.6 25.3933 244.1 25.7933 244.7 25.9933C245.3 26.2933 246 26.3933 246.7 26.3933C247.4 26.3933 248.1 26.2933 248.7 25.9933C249.3 25.6933 249.8 25.3933 250.2 24.9933C250.6 24.5933 250.9 23.9933 251.2 23.3933C251.5 22.7933 251.5 22.1933 251.5 21.4933V13.7933H250.6V21.4933C250.6 22.0933 250.5 22.5933 250.3 23.0933C250.1 23.5933 249.9 23.9933 249.5 24.3933C249.2 24.7933 248.8 25.0933 248.3 25.2933C247.8 25.4933 247.3 25.5933 246.7 25.5933C246.1 25.5933 245.6 25.4933 245.1 25.2933ZM230 13.7933V14.5933H234.5V26.2933H235.4V14.5933H239.9V13.7933H230ZM221.3 13.7933V26.2933H222.2V20.5933H228V19.8933H222.2V14.6933H228.9V13.9933H221.3V13.7933ZM217.2 13.7933H216.3V26.2933H217.2V13.7933ZM203.8 13.7933V14.5933H208.3V26.2933H209.2V14.5933H213.7V13.7933H203.8ZM202.4 14.8933C202 14.4933 201.5 14.1933 201 13.9933C200.5 13.7933 199.9 13.6933 199.2 13.6933C198.6 13.6933 198.1 13.7933 197.6 13.9933C197.1 14.1933 196.8 14.3933 196.4 14.6933C196 14.9933 195.9 15.2933 195.7 15.6933C195.5 16.0933 195.5 16.4933 195.5 16.8933C195.5 17.3933 195.6 17.8933 195.8 18.1933C196 18.5933 196.2 18.8933 196.5 19.0933C196.8 19.2933 197.1 19.4933 197.5 19.6933C197.9 19.8933 198.3 19.9933 198.7 20.0933C199.1 20.1933 199.5 20.2933 199.9 20.4933C200.3 20.5933 200.6 20.7933 200.9 20.9933C201.2 21.1933 201.4 21.3933 201.6 21.6933C201.8 21.9933 201.9 22.2933 201.9 22.7933C201.9 23.1933 201.8 23.5933 201.7 23.8933C201.6 24.2933 201.3 24.5933 201.1 24.7933C200.8 25.0933 200.5 25.2933 200.1 25.3933C199.7 25.4933 199.3 25.5933 198.8 25.5933C198.4 25.5933 198.1 25.5933 197.8 25.4933C197.5 25.3933 197.3 25.2933 197 25.1933C196.8 25.0933 196.6 24.9933 196.4 24.8933C196.2 24.7933 196.1 24.6933 196 24.5933C195.9 24.4933 195.8 24.3933 195.7 24.2933C195.6 24.1933 195.5 24.1933 195.5 24.1933C195.4 24.1933 195.3 24.1933 195.2 24.2933L194.9 24.6933C195.4 25.1933 195.9 25.5933 196.5 25.8933C197.1 26.1933 197.8 26.2933 198.7 26.2933C199.3 26.2933 199.9 26.1933 200.4 25.9933C200.9 25.7933 201.3 25.4933 201.7 25.1933C202 24.8933 202.3 24.4933 202.5 23.9933C202.7 23.4933 202.8 22.9933 202.8 22.4933C202.8 21.9933 202.7 21.5933 202.5 21.1933C202.3 20.8933 202.1 20.5933 201.8 20.2933C201.5 20.0933 201.2 19.8933 200.8 19.6933C200.4 19.4933 200 19.3933 199.6 19.2933C199.2 19.1933 198.8 18.9933 198.4 18.8933C198 18.7933 197.7 18.5933 197.4 18.3933C197.1 18.1933 196.9 17.9933 196.7 17.6933C196.5 17.3933 196.4 17.0933 196.4 16.6933C196.4 16.3933 196.5 16.0933 196.6 15.7933C196.7 15.4933 196.9 15.1933 197.1 14.9933C197.3 14.7933 197.6 14.5933 198 14.4933C198.4 14.3933 198.8 14.2933 199.2 14.2933C199.7 14.2933 200.1 14.3933 200.4 14.4933C200.7 14.5933 201 14.6933 201.2 14.8933C201.4 14.9933 201.6 15.1933 201.7 15.2933C201.8 15.3933 201.9 15.4933 202 15.4933C202.1 15.4933 202.2 15.4933 202.2 15.3933L202.4 14.8933ZM181.9 13.7933V26.2933H189.5V25.5933H182.8V20.3933H188.4V19.6933H182.8V14.6933H189.5V13.9933H181.9V13.7933ZM178.2 13.7933H177.3V19.5933H169.3V13.7933H168.4V26.2933H169.3V20.2933H177.3V26.2933H178.2V13.7933ZM164.9 24.1933C164.8 24.1933 164.8 24.1933 164.9 24.1933C164.6 24.4933 164.3 24.6933 164.1 24.8933C163.8 25.0933 163.6 25.1933 163.3 25.2933C163 25.3933 162.7 25.4933 162.3 25.5933C161.9 25.6933 161.5 25.6933 161.1 25.6933C160.4 25.6933 159.7 25.5933 159.1 25.2933C158.5 24.9933 157.9 24.6933 157.5 24.1933C157 23.6933 156.7 23.0933 156.4 22.3933C156.1 21.6933 156 20.8933 156 19.9933C156 19.0933 156.1 18.3933 156.4 17.6933C156.7 16.9933 157 16.3933 157.5 15.8933C158 15.3933 158.5 14.9933 159.2 14.7933C159.8 14.4933 160.6 14.3933 161.3 14.3933C161.7 14.3933 162.1 14.3933 162.4 14.4933C162.7 14.5933 163 14.5933 163.3 14.6933C163.6 14.7933 163.8 14.8933 164 14.9933C164.2 15.0933 164.3 15.1933 164.5 15.2933C164.6 15.3933 164.7 15.4933 164.8 15.4933C164.9 15.5933 165 15.5933 165 15.5933C165.1 15.5933 165.2 15.5933 165.2 15.4933L165.5 15.0933C165.2 14.8933 164.9 14.5933 164.6 14.3933C164.3 14.1933 164 14.0933 163.7 13.8933C163.4 13.7933 163 13.6933 162.6 13.5933C162.2 13.4933 161.8 13.4933 161.3 13.4933C160.4 13.4933 159.5 13.6933 158.8 13.9933C158 14.2933 157.4 14.6933 156.8 15.2933C156.3 15.8933 155.8 16.4933 155.5 17.2933C155.2 18.0933 155 18.8933 155 19.8933C155 20.8933 155.1 21.6933 155.4 22.4933C155.7 23.2933 156.1 23.9933 156.6 24.4933C157.1 25.0933 157.8 25.4933 158.5 25.7933C159.2 26.0933 160 26.2933 160.9 26.2933C161.4 26.2933 161.9 26.2933 162.3 26.1933C162.7 26.0933 163.1 25.9933 163.5 25.7933C163.9 25.5933 164.2 25.4933 164.5 25.1933C164.8 24.9933 165.1 24.6933 165.4 24.4933L165 24.0933C165.1 24.1933 165 24.1933 164.9 24.1933ZM152.7 14.8933C152.3 14.4933 151.8 14.1933 151.3 13.9933C150.8 13.7933 150.2 13.6933 149.5 13.6933C148.9 13.6933 148.4 13.7933 147.9 13.9933C147.4 14.1933 147.1 14.3933 146.7 14.6933C146.3 14.9933 146.2 15.2933 146 15.6933C145.8 16.0933 145.8 16.4933 145.8 16.8933C145.8 17.3933 145.9 17.8933 146.1 18.1933C146.3 18.5933 146.5 18.8933 146.8 19.0933C147.1 19.2933 147.4 19.4933 147.8 19.6933C148.2 19.8933 148.6 19.9933 149 20.0933C149.4 20.1933 149.8 20.2933 150.2 20.4933C150.6 20.5933 150.9 20.7933 151.2 20.9933C151.5 21.1933 151.7 21.3933 151.9 21.6933C152.1 21.9933 152.2 22.2933 152.2 22.7933C152.2 23.1933 152.1 23.5933 152 23.8933C151.9 24.2933 151.6 24.5933 151.4 24.7933C151.1 25.0933 150.8 25.2933 150.4 25.3933C150 25.4933 149.6 25.5933 149.1 25.5933C148.7 25.5933 148.4 25.5933 148.1 25.4933C147.8 25.3933 147.6 25.2933 147.3 25.1933C147.1 25.0933 146.9 24.9933 146.7 24.8933C146.5 24.7933 146.4 24.6933 146.3 24.5933C146.2 24.4933 146.1 24.3933 146 24.2933C145.9 24.1933 145.8 24.1933 145.8 24.1933C145.7 24.1933 145.6 24.1933 145.5 24.2933L145.2 24.6933C145.7 25.1933 146.2 25.5933 146.8 25.8933C147.4 26.1933 148.1 26.2933 149 26.2933C149.6 26.2933 150.2 26.1933 150.7 25.9933C151.2 25.7933 151.6 25.4933 152 25.1933C152.3 24.8933 152.6 24.4933 152.8 23.9933C153 23.4933 153.1 22.9933 153.1 22.4933C153.1 21.9933 153 21.5933 152.8 21.1933C152.6 20.8933 152.4 20.5933 152.1 20.2933C151.8 20.0933 151.5 19.8933 151.1 19.6933C150.7 19.4933 150.3 19.3933 149.9 19.2933C149.5 19.1933 149.1 18.9933 148.7 18.8933C148.3 18.7933 148 18.5933 147.7 18.3933C147.4 18.1933 147.2 17.9933 147 17.6933C146.8 17.3933 146.7 17.0933 146.7 16.6933C146.7 16.3933 146.8 16.0933 146.9 15.7933C147 15.4933 147.2 15.1933 147.4 14.9933C147.6 14.7933 147.9 14.5933 148.3 14.4933C148.7 14.3933 149.1 14.2933 149.5 14.2933C150 14.2933 150.4 14.3933 150.7 14.4933C151 14.5933 151.3 14.6933 151.5 14.8933C151.7 14.9933 151.9 15.1933 152 15.2933C152.1 15.3933 152.2 15.4933 152.3 15.4933C152.4 15.4933 152.5 15.4933 152.5 15.3933L152.7 14.8933ZM134.3 13.7933V14.5933H138.8V26.2933H139.7V14.5933H144.2V13.7933H134.3ZM125.7 25.2933C125.2 25.0933 124.8 24.7933 124.5 24.3933C124.2 23.9933 123.9 23.5933 123.7 23.0933C123.5 22.5933 123.4 22.0933 123.4 21.4933V13.7933H122.5V21.4933C122.5 22.1933 122.6 22.7933 122.8 23.3933C123 23.9933 123.3 24.4933 123.8 24.9933C124.2 25.3933 124.7 25.7933 125.3 25.9933C125.9 26.2933 126.6 26.3933 127.3 26.3933C128 26.3933 128.7 26.2933 129.3 25.9933C129.9 25.6933 130.4 25.3933 130.8 24.9933C131.2 24.5933 131.5 23.9933 131.8 23.3933C132 22.7933 132.1 22.1933 132.1 21.4933V13.7933H131.2V21.4933C131.2 22.0933 131.1 22.5933 130.9 23.0933C130.7 23.5933 130.5 23.9933 130.1 24.3933C129.8 24.7933 129.4 25.0933 128.9 25.2933C128.4 25.4933 127.9 25.5933 127.3 25.5933C126.8 25.5933 126.2 25.4933 125.7 25.2933ZM112.1 13.7933V26.2933H119.7V25.5933H113V20.3933H118.6V19.6933H113V14.6933H119.7V13.9933H112.1V13.7933ZM107.8 22.3933C107.6 23.0933 107.2 23.6933 106.8 24.0933C106.4 24.5933 105.8 24.8933 105.2 25.1933C104.6 25.3933 103.9 25.5933 103.1 25.5933H99.4V14.5933H103.1C103.9 14.5933 104.6 14.6933 105.2 14.9933C105.8 15.1933 106.4 15.5933 106.8 16.0933C107.2 16.5933 107.6 17.0933 107.8 17.7933C108 18.4933 108.2 19.2933 108.2 20.0933C108.2 20.8933 108 21.6933 107.8 22.3933ZM108.7 17.4933C108.4 16.6933 108 16.0933 107.5 15.4933C107 14.9933 106.3 14.4933 105.6 14.2933C104.9 13.9933 104 13.8933 103.1 13.8933H98.5V26.3933H103.1C104 26.3933 104.8 26.2933 105.6 25.9933C106.3 25.6933 107 25.2933 107.5 24.7933C108 24.2933 108.4 23.5933 108.7 22.7933C109 21.9933 109.1 21.1933 109.1 20.1933C109.1 19.0933 109 18.1933 108.7 17.4933Z" fill="black"/>
<path d="M38.6 79.5933C37.6 79.5933 36.6 79.5933 35.7 79.4933C31 78.9933 25 77.6933 19.7 71.1933C14.5 64.5933 14.4 58.3933 14.9 53.7933C15.3 49.9933 18.6 30.6933 41.6 25.2933C44.2 24.6933 46.8 24.1933 49.3 23.7933C62.8 21.8933 72.7 24.1933 74.6 26.5933C76.2 28.5933 77.9 40.3933 69.1 59.1933C61.9 74.4933 49.7 78.2933 43.1 79.2933C41.6 79.4933 40.1 79.5933 38.6 79.5933ZM59.2 24.8933C56.4 24.8933 53.2 25.0933 49.7 25.5933C47.2 25.8933 44.7 26.3933 42.1 26.9933C20.2 32.0933 17.1 50.2933 16.8 53.8933C16.3 58.1933 16.4 63.8933 21.2 69.9933C26.1 75.8933 31.7 77.1933 36 77.5933C38.2 77.7933 40.6 77.7933 43 77.3933C49.3 76.4933 60.8 72.8933 67.6 58.3933C76.6 39.1933 74.1 28.5933 73.4 27.6933C72.4 26.6933 67.4 24.8933 59.2 24.8933Z" fill="#FFCC00"/>
<path d="M32.3 75.3933C27.9 75.3933 23.9 74.1933 20 71.5933C13.1 66.7933 11.2 60.8933 10.3 56.2933C9.7 52.4933 7.1 33.0933 27.6 21.1933C38.1 15.0933 46.1 12.9933 51.1 12.2933C52.6 12.0933 57.7 11.4933 59.6 12.7933C61.7 14.1933 66.8 24.9933 63.8 45.5933C60.5 69.0933 41.5 73.9933 37.8 74.6933C37.2 74.7933 36.5 74.8933 35.9 74.9933C34.7 75.2933 33.5 75.3933 32.3 75.3933ZM55.3 13.7933C54.2 13.7933 52.9 13.8933 51.3 14.0933C46.5 14.7933 38.7 16.7933 28.5 22.6933C9.1 34.0933 11.5 52.3933 12.2 55.8933C13 60.1933 14.8 65.5933 21.1 69.9933C25.6 72.9933 30.3 73.9933 35.7 73.2933C36.3 73.1933 36.9 73.0933 37.5 72.9933C41 72.2933 58.9 67.5933 62.1 45.3933C65.1 24.3933 59.5 14.9933 58.7 14.3933C58.2 14.0933 57 13.7933 55.3 13.7933Z" fill="#FF0000"/>
<path d="M27.2 72.7933C25 72.7933 22.9 72.4933 20.5 71.7933C12.5 69.1933 9 64.0933 6.8 59.9933C5 56.5933 -3.1 38.7933 13.1 21.3933C24.6 8.89333 34.9 4.59333 39.2 3.99333C40.1 3.89333 40.7 3.89333 41.2 4.09333C43.6 4.79333 51.6 13.6933 54.8 34.1933C58.5 57.5933 41.8 67.8933 38.4 69.6933C35.4 71.2933 32.8 72.1933 30 72.5933C29.1 72.6933 28.2 72.7933 27.2 72.7933ZM40.2 5.69333C40 5.69333 39.8 5.69333 39.4 5.79333C35.4 6.39333 25.6 10.4933 14.4 22.6933C-0.900001 39.0933 6.7 55.8933 8.4 59.0933C10.4 62.8933 13.7 67.5933 21 69.9933C24.1 70.8933 26.9 71.0933 29.7 70.6933C32.2 70.2933 34.7 69.4933 37.5 67.9933C40.7 66.2933 56.4 56.5933 53 34.3933C49.8 13.4933 41.7 6.09333 40.7 5.79333C40.6 5.79333 40.4 5.69333 40.2 5.69333Z" fill="black"/>
</svg>
