<svg width="261" height="62" viewBox="0 0 261 62" fill="none" xmlns="http://www.w3.org/2000/svg">
<path d="M86.3961 26.8642V7.19723H79.5371V3.13382H97.8712V7.19723H91.0121V26.8642H86.3961Z" fill="#1F2937"/>
<path d="M106.582 27.4818C105.065 27.4818 103.732 27.2217 102.584 26.7016C101.457 26.1815 100.514 25.488 99.7556 24.6212C99.0188 23.7326 98.4553 22.7466 98.0652 21.663C97.6968 20.5794 97.5126 19.4742 97.5126 18.3472V17.7296C97.5126 16.5593 97.6968 15.4324 98.0652 14.3488C98.4553 13.2653 99.0188 12.29 99.7556 11.4232C100.514 10.5563 101.446 9.87367 102.551 9.37522C103.656 8.85511 104.935 8.59505 106.387 8.59505C108.294 8.59505 109.887 9.01764 111.166 9.86284C112.444 10.6864 113.409 11.7808 114.059 13.1461C114.731 14.4897 115.067 15.9417 115.067 17.5021V19.1274H101.804C101.955 20.5144 102.41 21.6305 103.169 22.4757C103.949 23.3209 105.087 23.7435 106.582 23.7435C107.666 23.7435 108.554 23.5267 109.248 23.0933C109.963 22.6382 110.418 22.0856 110.613 21.4354H114.774C114.384 23.2559 113.463 24.7187 112.011 25.8239C110.559 26.9292 108.749 27.4818 106.582 27.4818ZM106.387 12.3334C105.108 12.3334 104.09 12.691 103.331 13.4061C102.573 14.1213 102.085 15.1073 101.869 16.3643H110.743C110.57 15.1073 110.115 14.1213 109.378 13.4061C108.663 12.691 107.666 12.3334 106.387 12.3334Z" fill="#1F2937"/>
<path d="M126.35 27.4818C124.812 27.4818 123.479 27.2217 122.352 26.7016C121.225 26.1815 120.293 25.488 119.556 24.6212C118.82 23.7543 118.267 22.7791 117.898 21.6955C117.53 20.6119 117.346 19.5067 117.346 18.3798V17.7621C117.346 16.5918 117.53 15.4649 117.898 14.3814C118.289 13.2761 118.852 12.29 119.589 11.4232C120.347 10.5563 121.279 9.87367 122.385 9.37522C123.511 8.85511 124.823 8.59505 126.318 8.59505C127.857 8.59505 129.222 8.89845 130.414 9.50525C131.627 10.0904 132.592 10.9139 133.307 11.9758C134.044 13.0377 134.466 14.273 134.575 15.6816H130.186C130.056 14.7714 129.666 14.0129 129.016 13.4061C128.366 12.7993 127.466 12.4959 126.318 12.4959C124.801 12.4959 123.674 13.016 122.937 14.0563C122.222 15.0965 121.864 16.4293 121.864 18.0547C121.864 19.6367 122.211 20.9587 122.905 22.0206C123.62 23.0608 124.768 23.5809 126.35 23.5809C127.521 23.5809 128.442 23.2775 129.114 22.6707C129.807 22.0639 130.219 21.2729 130.349 20.2977H134.737C134.651 21.728 134.228 22.985 133.469 24.0685C132.733 25.1521 131.747 25.9973 130.511 26.6041C129.276 27.1892 127.889 27.4818 126.35 27.4818Z" fill="#1F2937"/>
<path d="M138.032 26.8642V3.13382H142.55V12.1709C143.006 11.0439 143.677 10.1771 144.566 9.57027C145.454 8.96347 146.571 8.66006 147.914 8.66006H148.109C150.125 8.66006 151.653 9.36439 152.693 10.773C153.733 12.16 154.253 14.1646 154.253 16.7869V26.8642H149.735V16.3643C149.735 15.2374 149.41 14.3488 148.759 13.6987C148.131 13.0486 147.297 12.7235 146.256 12.7235C145.129 12.7235 144.23 13.0919 143.558 13.8287C142.886 14.5439 142.55 15.4866 142.55 16.6569V26.8642H138.032Z" fill="#1F2937"/>
<path d="M92.41 58.0769C90.2428 58.0769 88.3899 57.6977 86.8512 56.9392C85.3342 56.1807 84.0881 55.1946 83.1129 53.981C82.1593 52.7674 81.455 51.4563 80.9999 50.0476C80.5448 48.6173 80.3172 47.2303 80.3172 45.8867V45.1715C80.3172 43.7195 80.5448 42.2784 80.9999 40.848C81.4767 39.3961 82.2027 38.0849 83.1779 36.9147C84.1531 35.7444 85.3884 34.8125 86.8837 34.119C88.3791 33.4039 90.167 33.0463 92.2474 33.0463C94.3712 33.0463 96.235 33.4364 97.8387 34.2166C99.4424 34.9967 100.721 36.0803 101.675 37.4673C102.628 38.8543 103.202 40.4796 103.397 42.3434H98.7489C98.4888 40.718 97.7628 39.4827 96.5709 38.6375C95.4006 37.7707 93.9595 37.3373 92.2474 37.3373C90.6654 37.3373 89.3326 37.6948 88.249 38.41C87.1871 39.1035 86.3744 40.0679 85.811 41.3032C85.2692 42.5384 84.9983 43.9579 84.9983 45.5616C84.9983 47.122 85.28 48.5198 85.8435 49.755C86.4069 50.9903 87.2413 51.9764 88.3465 52.7132C89.4518 53.4284 90.8063 53.786 92.41 53.786C94.187 53.786 95.6824 53.3525 96.896 52.4857C98.1313 51.5971 98.8789 50.3619 99.139 48.7798H103.788C103.571 50.4919 102.986 52.0522 102.032 53.4609C101.1 54.8695 99.8216 55.9965 98.1963 56.8416C96.5926 57.6652 94.6638 58.0769 92.41 58.0769Z" fill="#1F2937"/>
<path d="M113.014 58.0119C110.977 58.0119 109.395 57.3509 108.268 56.029C107.163 54.6853 106.61 52.6807 106.61 50.0151V39.7753H111.129V50.4052C111.129 51.5104 111.432 52.3773 112.039 53.0058C112.646 53.6343 113.469 53.9485 114.509 53.9485C115.55 53.9485 116.395 53.6126 117.045 52.9408C117.717 52.2689 118.053 51.3587 118.053 50.2102V39.7753H122.571V57.4593H118.995V53.3634C118.237 56.4624 116.308 58.0119 113.209 58.0119H113.014Z" fill="#1F2937"/>
<path d="M127.664 57.4593V37.1097H125.454V33.7289H132.183V57.4593H127.664Z" fill="#1F2937"/>
<path d="M144.688 57.6868C143.062 57.6868 141.719 57.481 140.657 57.0692C139.595 56.6358 138.804 55.9206 138.284 54.9237C137.785 53.9268 137.536 52.5615 137.536 50.8278V43.1236H134.741V39.8078H137.536L137.569 34.8342H141.795L141.762 39.8078H147.223V43.1236H141.762V51.1204C141.762 51.9872 141.99 52.659 142.445 53.1358C142.922 53.5909 143.593 53.8185 144.46 53.8185H147.223V57.6868H144.688Z" fill="#1F2937"/>
<path d="M153.194 37.6948C152.305 37.6948 151.644 37.4673 151.211 37.0122C150.799 36.5354 150.593 35.9394 150.593 35.2243C150.593 34.5091 150.799 33.924 151.211 33.4689C151.644 33.0138 152.305 32.7862 153.194 32.7862C154.061 32.7862 154.7 33.0138 155.112 33.4689C155.545 33.924 155.762 34.5091 155.762 35.2243C155.762 35.9394 155.545 36.5354 155.112 37.0122C154.7 37.4673 154.061 37.6948 153.194 37.6948ZM151.536 57.4593V43.1886H149.065V39.8078H156.054V57.4593H151.536Z" fill="#1F2937"/>
<path d="M164.48 57.4593L158.954 39.8078H163.603L167.763 53.7535H168.544L172.152 39.8078H176.508L171.729 57.4593H164.48Z" fill="#1F2937"/>
<path d="M184.38 57.9144C182.429 57.9144 180.869 57.4159 179.698 56.419C178.55 55.4222 177.976 54.0243 177.976 52.2256C177.976 50.2968 178.669 48.8774 180.056 47.9671C181.465 47.0353 183.35 46.5693 185.712 46.5693H189.321V46.4068C189.321 44.3913 188.302 43.3836 186.265 43.3836C185.723 43.3836 185.073 43.3945 184.315 43.4161C183.556 43.4378 182.787 43.4703 182.006 43.5136C181.248 43.5353 180.565 43.5678 179.959 43.6112V39.7753C180.695 39.7103 181.573 39.6561 182.592 39.6128C183.632 39.5694 184.585 39.5478 185.452 39.5478C188.161 39.5478 190.198 40.1004 191.564 41.2056C192.951 42.2892 193.644 44.0554 193.644 46.5043V57.4593H190.068V54.0785C189.266 56.6358 187.37 57.9144 184.38 57.9144ZM185.647 54.6962C186.254 54.6962 186.828 54.5878 187.37 54.3711C187.912 54.1327 188.356 53.7426 188.703 53.2008C189.071 52.6374 189.277 51.8789 189.321 50.9253V49.2674H185.647C184.607 49.2674 183.805 49.5275 183.242 50.0476C182.7 50.5461 182.429 51.1962 182.429 51.9981C182.429 52.8216 182.7 53.4826 183.242 53.981C183.805 54.4578 184.607 54.6962 185.647 54.6962Z" fill="#1F2937"/>
<path d="M205.831 57.6868C204.205 57.6868 202.862 57.481 201.8 57.0692C200.738 56.6358 199.947 55.9206 199.427 54.9237C198.928 53.9268 198.679 52.5615 198.679 50.8278V43.1236H195.884V39.8078H198.679L198.712 34.8342H202.938L202.905 39.8078H208.366V43.1236H202.905V51.1204C202.905 51.9872 203.133 52.659 203.588 53.1358C204.065 53.5909 204.736 53.8185 205.603 53.8185H208.366V57.6868H205.831Z" fill="#1F2937"/>
<path d="M214.337 37.6948C213.448 37.6948 212.787 37.4673 212.354 37.0122C211.942 36.5354 211.736 35.9394 211.736 35.2243C211.736 34.5091 211.942 33.924 212.354 33.4689C212.787 33.0138 213.448 32.7862 214.337 32.7862C215.204 32.7862 215.843 33.0138 216.255 33.4689C216.688 33.924 216.905 34.5091 216.905 35.2243C216.905 35.9394 216.688 36.5354 216.255 37.0122C215.843 37.4673 215.204 37.6948 214.337 37.6948ZM212.679 57.4593V43.1886H210.208V39.8078H217.197V57.4593H212.679Z" fill="#1F2937"/>
<path d="M230.564 58.0769C228.484 58.0769 226.728 57.6543 225.298 56.8091C223.868 55.9423 222.773 54.8154 222.015 53.4284C221.278 52.0414 220.91 50.5677 220.91 49.0074V48.3247C220.91 46.6994 221.289 45.1932 222.047 43.8062C222.828 42.4192 223.933 41.3031 225.363 40.458C226.815 39.6128 228.549 39.1902 230.564 39.1902C232.558 39.1902 234.27 39.6128 235.7 40.458C237.152 41.3031 238.258 42.4192 239.016 43.8062C239.796 45.1932 240.186 46.6994 240.186 48.3247V49.0074C240.186 50.5677 239.807 52.0414 239.049 53.4284C238.312 54.8154 237.228 55.9423 235.798 56.8091C234.368 57.6543 232.623 58.0769 230.564 58.0769ZM230.564 54.2086C232.211 54.2086 233.468 53.6884 234.335 52.6482C235.224 51.5863 235.668 50.2535 235.668 48.6498C235.668 47.0461 235.213 45.7133 234.303 44.6514C233.392 43.5895 232.146 43.0585 230.564 43.0585C228.961 43.0585 227.704 43.5895 226.793 44.6514C225.883 45.7133 225.428 47.0461 225.428 48.6498C225.428 50.2535 225.862 51.5863 226.728 52.6482C227.617 53.6884 228.896 54.2086 230.564 54.2086Z" fill="#1F2937"/>
<path d="M243.818 57.4593V39.8078H247.394V44.1638C248.152 40.8914 250.168 39.2552 253.44 39.2552H253.635C255.737 39.2552 257.33 39.9378 258.414 41.3032C259.497 42.6685 260.039 44.6839 260.039 47.3495V57.4593H255.521V46.9594C255.521 45.8758 255.206 44.9981 254.578 44.3263C253.949 43.6545 253.104 43.3186 252.042 43.3186C250.937 43.3186 250.038 43.6653 249.344 44.3588C248.672 45.0523 248.336 45.9625 248.336 47.0895V57.4593H243.818Z" fill="#1F2937"/>
<path fill-rule="evenodd" clip-rule="evenodd" d="M59.2779 17.9128L59.2779 17.9128L59.2779 17.9129C58.3217 20.6465 57.3656 23.3801 57.3656 26.1714V35.2053C57.3656 37.9967 58.3218 40.7304 59.278 43.464C60.2342 46.1977 61.1904 48.9314 61.1904 51.7228C61.1904 57.0032 56.9098 61.2838 51.6295 61.2838C48.8382 61.2838 46.1047 60.3276 43.3711 59.3715C40.6376 58.4154 37.9041 57.4593 35.1128 57.4593H26.0775C23.2863 57.4593 20.5528 58.4154 17.8193 59.3715C15.0857 60.3276 12.3522 61.2837 9.56097 61.2837C4.28059 61.2837 0 57.0031 0 51.7227C0 48.9317 0.955986 46.1983 1.91197 43.4649C2.86796 40.7315 3.82395 37.9982 3.82395 35.2071L3.82395 26.1698C3.82395 23.3788 2.868 20.6454 1.91204 17.9121C0.956092 15.1788 0.000140763 12.4455 0.000141007 9.65444C0.000141468 4.37406 4.28074 0.0934636 9.56112 0.093464C12.3523 0.0934643 15.0858 1.04956 17.8194 2.00565C20.5529 2.96174 23.2864 3.91783 26.0776 3.91783L35.1125 3.91783C37.9038 3.91783 40.6373 2.96171 43.3709 2.00558C46.1044 1.04945 48.838 0.0933228 51.6293 0.0933228C56.9097 0.0933228 61.1902 4.37392 61.1902 9.6543C61.1902 12.4456 60.2341 15.1792 59.2779 17.9128ZM55.4541 9.6543C55.4541 11.7665 53.7419 13.4787 51.6297 13.4787C49.5176 13.4787 47.8054 11.7665 47.8054 9.6543C47.8054 7.54215 49.5176 5.82991 51.6297 5.82991C53.7419 5.82991 55.4541 7.54215 55.4541 9.6543ZM51.6297 55.547C53.7419 55.547 55.4541 53.8347 55.4541 51.7226C55.4541 49.6104 53.7419 47.8982 51.6297 47.8982C49.5176 47.8982 47.8054 49.6104 47.8054 51.7226C47.8054 53.8347 49.5176 55.547 51.6297 55.547ZM13.3855 9.65432C13.3855 11.7665 11.6733 13.4787 9.56115 13.4787C7.449 13.4787 5.73676 11.7665 5.73676 9.65432C5.73676 7.54217 7.449 5.82993 9.56115 5.82993C11.6733 5.82993 13.3855 7.54217 13.3855 9.65432ZM9.5613 55.547C11.6735 55.547 13.3857 53.8347 13.3857 51.7226C13.3857 49.6104 11.6735 47.8982 9.5613 47.8982C7.44915 47.8982 5.73691 49.6104 5.73691 51.7226C5.73691 53.8347 7.44915 55.547 9.5613 55.547ZM37.543 50.5481C45.7458 47.6786 51.6294 39.8706 51.6294 30.6884C51.6294 19.0716 42.2121 9.65429 30.5953 9.65429C18.9784 9.65429 9.56111 19.0716 9.56111 30.6884C9.56111 42.1575 18.7403 51.4826 30.153 51.718C30.3956 50.2985 30.4436 49.2445 30.4064 47.902C30.3522 45.9453 28.9311 42.8395 28.0172 41.1414C25.8684 37.1507 25.5447 33.9186 26.0752 31.0671L25.772 31.106C21.0285 31.7132 16.6921 28.3588 16.0864 23.6137L15.769 21.1274L18.2544 20.8092C22.4249 20.2753 26.2806 22.8037 27.563 26.6471C27.8185 26.0937 28.0892 25.5485 28.365 25.0076C29.4686 22.8434 32.1532 19.6819 33.7264 17.8398C33.8222 17.7275 33.9943 17.7262 34.0443 17.8651C34.1778 18.2359 34.1101 18.8244 33.9144 19.532C33.5514 20.8439 33.0993 22.1618 32.6468 23.4808L32.6468 23.4809C31.1809 27.7536 29.711 32.0379 31.2563 36.1677C31.3979 36.5457 31.5604 36.9346 31.7383 37.3309C33.0645 33.6749 36.7521 31.2522 40.7944 31.6829L43.2868 31.9484L43.0222 34.4401C42.5438 38.9462 38.689 42.275 34.2391 42.1805C34.607 42.8706 34.9547 43.5402 35.2535 44.1707C36.2633 46.3119 37.0753 48.4107 37.543 50.5481Z" fill="#16A34A"/>
</svg>
