<svg width="66" height="60" viewBox="0 0 66 60" fill="none" xmlns="http://www.w3.org/2000/svg">
<path d="M61.6104 11.5709C56.2732 10.2814 50.5679 11.1104 45.7828 14.15C44.4025 14.979 43.1142 15.9922 42.01 17.1896C40.7217 18.4792 39.6174 19.953 38.6972 21.4267C37.685 18.2029 36.1206 15.0711 34.0042 12.3078C33.268 11.2946 32.4398 10.3735 31.5196 9.45239C23.9739 1.89935 13.5756 -0.679736 4.00543 1.62302C4.00543 1.62302 3.72937 2.3599 3.72937 2.54412V2.63623C3.08522 5.0311 2.80916 7.61019 2.80916 10.2814C2.80916 27.3218 16.6123 41.1383 33.6361 41.1383C43.2983 41.1383 51.8562 36.717 57.5615 29.7166C61.7024 24.4664 63.0827 17.7423 61.6104 11.5709Z" fill="#48AD9C"/>
<path fill-rule="evenodd" clip-rule="evenodd" d="M5.44765 53.7518V41.9781H0.170898V59.0337H65.8287V41.9781H60.552V53.7518H5.44765Z" fill="#1F2937"/>
</svg>
