<svg width="43" height="38" viewBox="0 0 43 38" fill="none" xmlns="http://www.w3.org/2000/svg">
<path d="M39.7816 7.17266C36.3258 6.3385 32.6316 6.87475 29.5333 8.84097C28.6396 9.37722 27.8054 10.0326 27.0905 10.8072C26.2563 11.6414 25.5413 12.5947 24.9455 13.548C24.2901 11.4626 23.2772 9.4368 21.9068 7.64932C21.4301 6.99391 20.8939 6.39809 20.298 5.80226C15.4123 0.916486 8.67942 -0.751828 2.48283 0.737738C2.48283 0.737738 2.30408 1.2144 2.30408 1.33356V1.39315C1.887 2.9423 1.70825 4.61061 1.70825 6.3385C1.70825 17.3613 10.6456 26.2987 21.6684 26.2987C27.9246 26.2987 33.4658 23.4387 37.1599 18.9104C39.8411 15.5142 40.7349 11.1647 39.7816 7.17266Z" fill="#1F2937"/>
<path fill-rule="evenodd" clip-rule="evenodd" d="M3.41665 34.4578V26.8419H0V37.8745H42.5129V26.8419H39.0962V34.4578H3.41665Z" fill="#1F2937"/>
</svg>
